<svg width="217" height="45" viewBox="0 0 217 45" fill="none" xmlns="http://www.w3.org/2000/svg">
<path d="M2.88475 26.5567L13.907 42.0567C15.2201 43.9032 17.3458 45 19.6117 45L44.5 45L44.5 0L19.6117 -2.17581e-06C17.3458 -2.3739e-06 15.2201 1.09676 13.907 2.94333L2.88475 18.4433C1.15767 20.872 1.15767 24.1279 2.88475 26.5567Z" fill="black"/>
<rect width="177" height="45" transform="translate(20)" fill="black"/>
<path d="M214.115 18.4433L203.093 2.94333C201.78 1.09676 199.654 0 197.388 0H169V45H197.388C199.654 45 201.78 43.9032 203.093 42.0567L214.115 26.5567C215.842 24.128 215.842 20.872 214.115 18.4433Z" fill="black"/>
</svg>
