<svg width="140" height="47" viewBox="0 0 140 47" fill="none" xmlns="http://www.w3.org/2000/svg">
<path d="M20 46L19.6117 46C17.3458 46 15.2201 44.9032 13.907 43.0567L2.88474 27.5567C1.15766 25.128 1.15766 21.872 2.88474 19.4433L13.907 3.94333C15.2201 2.09676 17.3458 1 19.6117 1L20 1" stroke="white"/>
<path d="M20 1.5H120V0.5H20V1.5ZM120 45.5H20V46.5H120V45.5Z" fill="white"/>
<path d="M120 1H120.388C122.654 1 124.78 2.09676 126.093 3.94333L137.115 19.4433C138.842 21.872 138.842 25.128 137.115 27.5567L126.093 43.0567C124.78 44.9032 122.654 46 120.388 46H120" stroke="white"/>
</svg>
