<svg width="217" height="47" viewBox="0 0 217 47" fill="none" xmlns="http://www.w3.org/2000/svg">
<path d="M20 46L19.6117 46C17.3458 46 15.2201 44.9032 13.907 43.0567L2.88474 27.5567C1.15766 25.128 1.15766 21.872 2.88474 19.4433L13.907 3.94333C15.2201 2.09676 17.3458 1 19.6117 1L20 1" stroke="white"/>
<path d="M20 1.5H197V0.5H20V1.5ZM197 45.5H20V46.5H197V45.5Z" fill="white"/>
<path d="M197 1H197.388C199.654 1 201.78 2.09676 203.093 3.94333L214.115 19.4433C215.842 21.872 215.842 25.128 214.115 27.5567L203.093 43.0567C201.78 44.9032 199.654 46 197.388 46H197" stroke="white"/>
</svg>
