<svg width="140" height="45" viewBox="0 0 140 45" fill="none" xmlns="http://www.w3.org/2000/svg">
<path d="M2.88474 26.5567L13.907 42.0567C15.2201 43.9032 17.3458 45 19.6117 45L32.5 45L32.5 0L19.6117 -1.12673e-06C17.3458 -1.32482e-06 15.2201 1.09676 13.907 2.94333L2.88475 18.4433C1.15766 20.872 1.15766 24.1279 2.88474 26.5567Z" fill="black"/>
<rect width="100" height="45" transform="translate(20)" fill="black"/>
<path d="M137.115 18.4433L126.093 2.94333C124.78 1.09676 122.654 0 120.388 0H107V45H120.388C122.654 45 124.78 43.9032 126.093 42.0567L137.115 26.5567C138.842 24.128 138.842 20.872 137.115 18.4433Z" fill="black"/>
</svg>
