<svg width="184" height="47" viewBox="0 0 184 47" fill="none" xmlns="http://www.w3.org/2000/svg">
<path d="M20 46L19.6117 46C17.3458 46 15.2201 44.9032 13.907 43.0567L2.88474 27.5567C1.15766 25.128 1.15766 21.872 2.88474 19.4433L13.907 3.94333C15.2201 2.09676 17.3458 1 19.6117 1L20 1" stroke="black"/>
<path d="M20 1.5H164V0.5H20V1.5ZM164 45.5H20V46.5H164V45.5Z" fill="black"/>
<path d="M164 1H164.388C166.654 1 168.78 2.09676 170.093 3.94333L181.115 19.4433C182.842 21.872 182.842 25.128 181.115 27.5567L170.093 43.0567C168.78 44.9032 166.654 46 164.388 46H164" stroke="black"/>
</svg>
