<svg width="300" height="45" viewBox="0 0 300 45" fill="none" xmlns="http://www.w3.org/2000/svg">
<path d="M2.88475 26.5567L13.907 42.0567C15.2201 43.9032 17.3458 45 19.6117 45L80.5 45L80.5 0L19.6117 -5.32303e-06C17.3458 -5.52111e-06 15.2201 1.09675 13.907 2.94333L2.88476 18.4433C1.15767 20.872 1.15767 24.1279 2.88475 26.5567Z" fill="black"/>
<rect width="260" height="45" transform="translate(20)" fill="black"/>
<path d="M297.115 18.4433L286.093 2.94333C284.78 1.09676 282.654 0 280.388 0H260V22.5V45H280.388C282.654 45 284.78 43.9032 286.093 42.0567L297.115 26.5567C298.842 24.128 298.842 20.872 297.115 18.4433Z" fill="black"/>
</svg>
