<svg width="184" height="45" viewBox="0 0 184 45" fill="none" xmlns="http://www.w3.org/2000/svg">
<path d="M2.88474 26.5567L13.907 42.0567C15.2201 43.9032 17.3458 45 19.6117 45L20 45L20 0L19.6117 -3.39506e-08C17.3458 -2.32038e-07 15.2201 1.09676 13.907 2.94333L2.88474 18.4433C1.15766 20.872 1.15766 24.128 2.88474 26.5567Z" fill="black"/>
<rect width="144" height="45" transform="translate(20)" fill="black"/>
<path d="M181.115 18.4433L170.093 2.94333C168.78 1.09676 166.654 0 164.388 0H164V45H164.388C166.654 45 168.78 43.9032 170.093 42.0567L181.115 26.5567C182.842 24.128 182.842 20.872 181.115 18.4433Z" fill="black"/>
</svg>
