<svg width="132" height="25" viewBox="0 0 132 25" fill="none" xmlns="http://www.w3.org/2000/svg">
<path fill-rule="evenodd" clip-rule="evenodd" d="M121.039 1H9.09451C8.75353 1 8.43605 1.17375 8.25224 1.46095L1.53224 11.9609C1.32194 12.2895 1.32194 12.7105 1.53224 13.0391L8.25224 23.5391C8.43605 23.8263 8.75353 24 9.09451 24H121.039C121.343 24 121.63 23.8619 121.82 23.6247L130.22 13.1247C130.512 12.7595 130.512 12.2405 130.22 11.8753L121.82 1.3753C121.63 1.13809 121.343 1 121.039 1ZM9.09451 0C8.41255 0 7.77759 0.347493 7.40997 0.921892L0.689969 11.4219C0.269359 12.0791 0.269359 12.9209 0.689969 13.5781L7.40997 24.0781C7.77759 24.6525 8.41254 25 9.09451 25H121.039C121.646 25 122.221 24.7238 122.6 24.2494L131 13.7494C131.585 13.019 131.585 11.981 131 11.2506L122.6 0.75061C122.221 0.276179 121.646 0 121.039 0H9.09451Z" fill="black"/>
</svg>
