<svg width="105" height="25" viewBox="0 0 105 25" fill="none" xmlns="http://www.w3.org/2000/svg">
<path fill-rule="evenodd" clip-rule="evenodd" d="M94.5387 1H9.09451C8.75353 1 8.43605 1.17375 8.25224 1.46095L1.53224 11.9609C1.32194 12.2895 1.32194 12.7105 1.53224 13.0391L8.25224 23.5391C8.43605 23.8263 8.75353 24 9.09451 24H94.5387C94.8425 24 95.1298 23.8619 95.3196 23.6247L103.72 13.1247C104.012 12.7595 104.012 12.2405 103.72 11.8753L95.3196 1.3753C95.1298 1.13809 94.8425 1 94.5387 1ZM9.09451 0C8.41255 0 7.77759 0.347493 7.40997 0.921892L0.689969 11.4219C0.269359 12.0791 0.269359 12.9209 0.689969 13.5781L7.40997 24.0781C7.77759 24.6525 8.41254 25 9.09451 25H94.5387C95.1463 25 95.7209 24.7238 96.1005 24.2494L104.5 13.7494C105.085 13.019 105.085 11.981 104.5 11.2506L96.1005 0.75061C95.7209 0.276179 95.1463 0 94.5387 0H9.09451Z" fill="black"/>
</svg>
