<svg width="80" height="25" viewBox="0 0 80 25" fill="none" xmlns="http://www.w3.org/2000/svg">
<path fill-rule="evenodd" clip-rule="evenodd" d="M69.5387 1H9.09451C8.75353 1 8.43605 1.17375 8.25224 1.46095L1.53224 11.9609C1.32194 12.2895 1.32194 12.7105 1.53224 13.0391L8.25224 23.5391C8.43605 23.8263 8.75353 24 9.09451 24H69.5387C69.8425 24 70.1298 23.8619 70.3196 23.6247L78.7196 13.1247C79.0118 12.7595 79.0118 12.2405 78.7196 11.8753L70.3196 1.3753C70.1298 1.13809 69.8425 1 69.5387 1ZM9.09451 0C8.41255 0 7.77759 0.347493 7.40997 0.921892L0.689969 11.4219C0.269359 12.0791 0.269359 12.9209 0.689969 13.5781L7.40997 24.0781C7.77759 24.6525 8.41255 25 9.09451 25H69.5387C70.1463 25 70.7209 24.7238 71.1005 24.2494L79.5005 13.7494C80.0848 13.019 80.0848 11.981 79.5005 11.2506L71.1005 0.75061C70.7209 0.276179 70.1463 0 69.5387 0H9.09451Z" fill="black"/>
</svg>
