<svg width="33" height="41" viewBox="0 0 33 41" fill="none" xmlns="http://www.w3.org/2000/svg">
<path d="M31.2699 4.2184C31.0375 4.03038 30.7659 3.89684 30.4751 3.8276C30.1842 3.75836 29.8816 3.75517 29.5894 3.81827C27.4516 4.2663 25.2447 4.27201 23.1046 3.83504C20.9645 3.39808 18.9365 2.5277 17.1455 1.27748C16.8106 1.04515 16.4127 0.920654 16.0051 0.920654C15.5976 0.920654 15.1997 1.04515 14.8648 1.27748C13.0737 2.5277 11.0457 3.39808 8.90565 3.83504C6.76557 4.27201 4.55869 4.2663 2.42089 3.81827C2.12868 3.75517 1.82604 3.75836 1.53522 3.8276C1.24439 3.89684 0.972789 4.03038 0.740365 4.2184C0.508251 4.40669 0.321276 4.6446 0.193179 4.91465C0.0650813 5.18469 -0.000882625 5.48 0.000133637 5.77888V20.6835C-0.00164499 23.5519 0.681893 26.3793 1.99383 28.93C3.30576 31.4808 5.20812 33.6813 7.54249 35.3481L14.8448 40.5498C15.1836 40.791 15.5892 40.9207 16.0051 40.9207C16.4211 40.9207 16.8267 40.791 17.1655 40.5498L24.4678 35.3481C26.8022 33.6813 28.7045 31.4808 30.0165 28.93C31.3284 26.3793 32.0119 23.5519 32.0102 20.6835V5.77888C32.0112 5.48 31.9452 5.18469 31.8171 4.91465C31.689 4.6446 31.502 4.40669 31.2699 4.2184ZM28.0089 20.6835C28.0104 22.9138 27.4793 25.1121 26.4597 27.0956C25.4401 29.0791 23.9616 30.7904 22.1471 32.0871L16.0051 36.4685L9.86322 32.0871C8.04873 30.7904 6.57016 29.0791 5.55057 27.0956C4.53098 25.1121 3.99985 22.9138 4.00139 20.6835V8.07961C8.19555 8.43858 12.3961 7.46546 16.0051 5.29874C19.6142 7.46546 23.8147 8.43858 28.0089 8.07961V20.6835ZM19.0861 16.1021L13.7044 21.5038L11.9239 19.7032C11.5471 19.3265 11.0362 19.1149 10.5034 19.1149C9.97065 19.1149 9.4597 19.3265 9.08298 19.7032C8.70625 20.08 8.49461 20.5909 8.49461 21.1237C8.49461 21.6565 8.70625 22.1674 9.08298 22.5441L12.284 25.7451C12.47 25.9326 12.6912 26.0815 12.935 26.1831C13.1788 26.2846 13.4403 26.3369 13.7044 26.3369C13.9685 26.3369 14.23 26.2846 14.4738 26.1831C14.7176 26.0815 14.9389 25.9326 15.1249 25.7451L22.007 18.923C22.3837 18.5463 22.5954 18.0353 22.5954 17.5026C22.5954 16.9698 22.3837 16.4588 22.007 16.0821C21.6303 15.7054 21.1193 15.4937 20.5866 15.4937C20.0538 15.4937 19.5429 15.7054 19.1661 16.0821L19.0861 16.1021Z" fill="black"/>
</svg>
