<svg width="253" height="36" viewBox="0 0 253 36" fill="none" xmlns="http://www.w3.org/2000/svg">
<path d="M53.1003 16.4868C54.8028 16.4868 55.939 15.3792 55.939 13.6673C55.939 11.9554 54.7701 10.7808 52.9984 10.7808C51.3954 10.7808 50.2604 11.9213 50.2604 13.7343C50.2604 15.5473 51.3299 16.4868 53.0991 16.4868M49.3921 27.025C49.3921 28.1655 50.6605 28.9721 52.7984 28.9721C55.7038 28.9721 57.3408 28.0315 57.3408 26.7899C57.3408 25.8176 56.5732 25.4472 55.0029 25.3814L51.1626 25.1791C49.9596 25.7493 49.3921 26.2867 49.3921 27.025ZM46.1848 21.6213C46.1848 20.3797 47.087 19.171 48.7907 18.2986C47.1864 17.325 46.3521 15.7484 46.3521 13.7014C46.3521 10.1094 49.0247 7.59213 52.9984 7.59213C54.6294 7.59213 56.2543 8.12094 57.5009 9.19073C58.3254 9.89864 58.9742 10.8234 59.3295 11.8555C59.5696 12.5536 59.646 13.3017 59.646 14.0365C59.646 17.4274 57.1735 19.6413 53.0991 19.6413C52.3643 19.6413 51.7288 19.5731 51.1941 19.439C50.4265 19.7412 50.0591 20.1445 50.0591 20.6136C50.0591 21.7894 51.6621 21.6883 54.6682 21.9234C59.1779 22.2597 61.0817 23.1321 61.0817 26.4889C61.0817 29.8457 58.243 31.9256 52.8651 31.9256C47.9552 31.9256 45.45 30.3819 45.45 27.5283C45.45 25.8846 46.4176 24.9793 48.49 24.3067C46.9196 23.5342 46.1848 22.83 46.1848 21.6213Z" fill="#003C71"/>
<path d="M61.1352 6.68317C61.1352 7.8943 60.1578 8.87636 58.9525 8.87636C57.7471 8.87636 56.7686 7.8943 56.7686 6.68317C56.7686 5.47204 57.7471 4.48997 58.9525 4.48997C60.1578 4.48997 61.1352 5.47204 61.1352 6.68317Z" fill="#003C71"/>
<path d="M67.352 1.12952H63.1976V25.6031H67.352V1.12952Z" fill="#003C71"/>
<path d="M77.1683 22.3718C79.4128 22.3718 80.4848 20.5198 80.4848 16.784C80.4848 13.0483 79.4128 11.2292 77.1683 11.2292C74.9238 11.2292 73.8518 13.0459 73.8518 16.784C73.8518 20.5222 74.9577 22.3718 77.1683 22.3718ZM77.1683 7.62624C81.8587 7.62624 84.6731 10.9928 84.6731 16.7828C84.6731 22.5729 81.8259 25.9394 77.1683 25.9394C72.5107 25.9394 69.6635 22.5387 69.6635 16.7828C69.6635 11.0269 72.4779 7.62624 77.1683 7.62624Z" fill="#003C71"/>
<path d="M94.1533 22.4388C96.4658 22.4388 97.8736 20.4528 97.8736 16.784C97.8736 13.1153 96.4318 11.061 94.1873 11.061C93.0486 11.061 92.1113 11.5655 91.0381 12.5427V20.9255C92.0773 21.9356 93.0147 22.4401 94.1533 22.4401M86.9844 21.4982V1.12952H91.0721V9.64642C92.2774 8.23181 93.5507 7.62624 95.3271 7.62624C99.1129 7.62624 102.027 11.0939 102.027 16.7828C102.027 22.4717 99.1784 25.9382 95.1925 25.9382C93.3166 25.9382 91.876 25.2656 90.4355 23.717L90.0001 25.6031H86.7843C86.9177 23.717 86.9856 22.3377 86.9856 21.4958" fill="#003C71"/>
<path d="M107.352 20.7562C107.352 21.9344 108.022 22.6411 109.23 22.6411C110.537 22.6411 111.809 22.0355 113.082 20.7903V17.0204C109.197 17.559 107.354 18.669 107.354 20.7574M113.184 24.0569C111.575 25.2352 109.833 25.8078 107.958 25.8078C105.01 25.8078 103.267 24.024 103.267 21.0949C103.267 17.1557 106.517 15.0685 113.217 14.2278V12.8473C113.217 11.5679 112.345 10.8271 110.738 10.8271C109.131 10.8271 107.823 11.5338 106.884 12.8473L104.07 11.0635C105.544 8.77403 107.789 7.62991 110.804 7.62991C114.925 7.62991 117.236 9.61597 117.236 12.8473V23.2162C117.236 23.823 117.336 24.6308 117.504 25.6068H113.55L113.183 24.0582L113.184 24.0569Z" fill="#003C71"/>
<path d="M124.908 1.12952H120.753V25.6031H124.908V1.12952Z" fill="#003C71"/>
<path d="M130.923 20.8902C132.666 23.1114 134.24 24.2226 136.183 24.2226C139.065 24.2226 140.773 21.6298 140.773 16.8157C140.773 12.0017 139.063 9.40883 136.183 9.40883C134.241 9.40883 132.666 10.4859 130.923 12.7084V20.889V20.8902ZM128.846 7.99666H130.387L130.923 10.2861H131.09C132.731 8.53521 134.475 7.66037 136.351 7.66037C140.17 7.66037 142.85 10.9928 142.85 16.7828C142.85 22.5729 140.17 25.9053 136.351 25.9053C134.475 25.9053 132.732 25.0634 131.09 23.3125H130.923V31.9987H128.846V7.99666Z" fill="#003C71"/>
<path d="M154.876 15.7057C148.979 17.0192 146.265 18.1292 146.265 21.1266C146.265 23.0785 147.371 24.2567 149.18 24.2567C151.089 24.2567 152.831 23.2125 154.876 21.1266V15.7057ZM154.876 23.2796C152.967 25.0633 151.056 25.9394 148.912 25.9394C146.031 25.9394 144.189 23.9533 144.189 21.2253C144.189 17.152 147.572 15.3353 154.91 14.0218V12.3051C154.91 10.587 153.469 9.41004 151.056 9.41004C149.147 9.41004 147.74 10.3519 146.702 12.238L145.092 11.295C146.466 8.87148 148.308 7.69325 151.324 7.69325C154.641 7.69325 156.953 9.67931 156.953 12.3051V23.2454C156.953 23.6841 157.052 24.4907 157.255 25.6019H155.212C155.043 24.7941 154.91 24.0191 154.876 23.2783" fill="#003C71"/>
<path d="M158.795 7.99664H160.872L166.031 22.9774L171.158 7.99664H173.134L166.534 26.9836C165.329 30.4842 163.922 31.9317 160.906 31.9317C160.37 31.9317 159.766 31.8976 159.097 31.7977V30.1138C159.633 30.2149 160.136 30.249 160.572 30.249C163.084 30.249 164.223 28.8356 164.893 25.5032L158.795 7.99786V7.99664Z" fill="#003C71"/>
<path d="M175.21 7.99664H177.119V10.7235H177.253C179.095 8.70334 181.039 7.69325 182.881 7.69325C184.858 7.69325 186.266 8.70334 187.07 10.7235H187.304C189.212 8.70334 191.055 7.69325 192.931 7.69325C195.879 7.69325 197.355 9.5794 197.355 13.3493V25.6019H195.378V14.0888C195.378 10.9916 194.842 9.50995 192.363 9.50995C190.753 9.50995 189.012 10.587 187.304 12.7754V25.6007H185.293V14.0876C185.293 10.9904 184.757 9.50873 182.277 9.50873C180.668 9.50873 178.961 10.5858 177.218 12.7742V25.5995H175.208V7.99299L175.21 7.99664Z" fill="#003C71"/>
<path d="M207.138 9.37715C204.392 9.37715 202.448 11.4631 202.113 15.2342H211.729C211.63 11.4314 209.886 9.37715 207.139 9.37715M213.774 21.3605C212.232 24.526 210.256 25.9053 207.173 25.9053C202.819 25.9053 200.038 22.4376 200.038 16.9181C200.038 11.0939 202.919 7.66037 207.108 7.66037C211.296 7.66037 213.673 10.5895 213.673 16.1785V16.7499H202.114C202.148 21.631 203.991 24.2239 207.308 24.2239C209.552 24.2239 210.993 23.1126 212.232 20.521L213.774 21.3617V21.3605Z" fill="#003C71"/>
<path d="M216.384 7.99664H218.461V10.7564C220.537 8.70334 222.582 7.69325 224.526 7.69325C227.675 7.69325 229.249 9.5794 229.249 13.3493V25.6019H227.206V14.0888C227.206 10.9916 226.602 9.50995 223.922 9.50995C222.179 9.50995 220.336 10.587 218.461 12.7754V25.6007H216.384V7.99421V7.99664Z" fill="#003C71"/>
<path d="M237.79 24.2908C238.26 24.2908 238.862 24.1556 239.632 23.9533V25.6372C238.862 25.8395 238.058 25.9735 237.288 25.9735C234.875 25.9735 233.839 24.7624 233.839 22.2037V9.71342H231.225V7.99664H233.839V2.77927H235.882V7.99664H239.533V9.71342H235.882V22.3048C235.882 23.6512 236.484 24.2908 237.79 24.2908Z" fill="#003C71"/>
<path d="M247.004 24.2568C249.182 24.2568 250.622 22.8763 250.622 21.0254C250.622 18.9041 248.98 18.4326 246.099 17.3555C242.548 16.042 240.704 15.0319 240.704 12.3392C240.704 9.64643 242.882 7.66037 246.366 7.66037C248.645 7.66037 250.655 8.77037 252.196 10.8917L250.722 11.9676C249.382 10.185 247.941 9.34304 245.999 9.34304C244.056 9.34304 242.848 10.5213 242.848 12.2381C242.848 14.1242 244.558 14.5616 247.472 15.6728C250.956 16.9863 252.732 18.0622 252.732 20.8561C252.732 23.65 250.388 25.9053 246.769 25.9053C244.022 25.9053 241.911 24.7953 240.168 22.4376L241.71 21.1924C243.217 23.2126 244.959 24.2555 247.003 24.2555" fill="#003C71"/>
<path d="M26.851 2.49537C26.851 3.87342 25.739 4.99073 24.3676 4.99073C22.9961 4.99073 21.8842 3.87342 21.8842 2.49537C21.8842 1.11731 22.9961 0 24.3676 0C25.739 0 26.851 1.11731 26.851 2.49537Z" fill="#003C71"/>
<path d="M17.0083 14.3264C18.9642 14.3264 20.269 13.0556 20.269 11.0878C20.269 9.12003 18.9266 7.77243 16.8931 7.77243C15.0523 7.77243 13.7476 9.08347 13.7476 11.1646C13.7476 13.2457 14.9747 14.3252 17.0083 14.3252" fill="#003C71"/>
<path d="M19.1945 24.5406L14.7831 24.3091C13.4019 24.9634 12.7507 25.58 12.7507 26.4292C12.7507 27.7403 14.2083 28.6651 16.6638 28.6651C20.0009 28.6651 21.8805 27.5855 21.8805 26.1599C21.8805 25.0414 20.9977 24.6186 19.1945 24.5406Z" fill="#003C71"/>
<path d="M16.7402 32.0572C11.1003 32.0572 8.22404 30.2843 8.22404 27.0079C8.22404 25.1194 9.336 24.0788 11.7139 23.3075C9.91078 22.4205 9.06802 21.6115 9.06802 20.2237C9.06802 18.8359 10.1036 17.4091 12.0595 16.4075C10.2188 15.289 9.25961 13.4784 9.25961 11.1268C9.25961 7.00237 12.3287 4.11101 16.893 4.11101C18.7665 4.11101 20.6302 4.71901 22.0648 5.9472C23.0118 6.75868 23.7564 7.82238 24.165 9.0067C24.4415 9.80966 24.5288 10.6687 24.5288 11.5118C24.5288 15.4047 21.6901 17.9488 17.0094 17.9488C16.1654 17.9488 15.4366 17.8721 14.8218 17.7173C13.9403 18.0646 13.5183 18.5264 13.5183 19.0661C13.5183 20.415 15.359 20.2992 18.8113 20.5697C23.9904 20.9547 26.1767 21.9575 26.1767 25.8114C26.1767 29.6654 22.916 32.056 16.7402 32.056M27.1626 4.02572C26.6217 5.01874 25.5728 5.69254 24.3675 5.69254C22.6092 5.69254 21.1844 4.25966 21.1844 2.49414C21.1844 2.11642 21.2523 1.75576 21.3724 1.41947C20.0712 1.10511 18.7131 0.938187 17.315 0.938187C7.75233 0.940624 0.00012207 8.73012 0.00012207 18.3375C0.00012207 27.9449 7.75233 35.7356 17.3138 35.7356C26.8752 35.7356 34.6286 27.9461 34.6286 18.3375C34.6286 12.4049 31.6723 7.16807 27.1614 4.02693" fill="#003C71"/>
</svg>
