<svg width="34" height="30" viewBox="0 0 34 30" fill="none" xmlns="http://www.w3.org/2000/svg">
<g clip-path="url(#clip0_6582_3265)">
<path d="M16.6632 30C16.1653 30 15.6674 29.8716 15.2236 29.6144L10.2957 26.7619C9.4103 26.2495 8.86072 25.2958 8.86072 24.2724V22.0172H5.26614C4.24238 22.0172 3.28822 21.4661 2.77655 20.579L0.384883 16.4346C-0.127617 15.5467 -0.126784 14.4437 0.386133 13.5562L2.77863 9.4189C3.29072 8.53308 4.24447 7.98324 5.26697 7.98324H8.86072V5.72054C8.86072 4.69632 9.41155 3.74172 10.2982 3.22981L15.2245 0.383926C16.1111 -0.127975 17.2128 -0.127975 18.0995 0.383926L23.0361 3.23523C23.9228 3.74755 24.4736 4.70174 24.4736 5.72596V7.98324H28.0736C29.0974 7.98324 30.0516 8.53433 30.5632 9.4214L32.9499 13.5575C33.4616 14.4445 33.4616 15.5467 32.9499 16.4338L30.5574 20.5794C30.0453 21.4665 29.0916 22.0176 28.0678 22.0176H24.4732V24.2745C24.4732 25.2987 23.9224 26.2533 23.0357 26.7652L18.1003 29.6161C17.657 29.872 17.1599 30 16.6628 30M5.26655 9.19338C4.67405 9.19338 4.12197 9.51228 3.82488 10.025L1.43238 14.1623C1.13488 14.6763 1.13488 15.3154 1.43155 15.8298L3.82322 19.9742C4.11988 20.4881 4.67238 20.8075 5.2653 20.8075H10.0691V24.2728C10.0691 24.8656 10.3874 25.4183 10.9003 25.7151L15.8286 28.5677C16.3424 28.8649 16.9811 28.8653 17.4953 28.5685L22.4307 25.7176C22.9445 25.4208 23.2632 24.8681 23.2632 24.2749V20.8079H28.067C28.6599 20.8079 29.2128 20.4886 29.5091 19.9746L31.9016 15.8289C32.1982 15.3149 32.1982 14.6767 31.9016 14.1627L29.5149 10.0267C29.2182 9.51269 28.6657 9.1938 28.0728 9.1938H23.2632V5.72679C23.2632 5.1336 22.9441 4.58043 22.4307 4.28405L17.4941 1.43232C16.9803 1.13552 16.3424 1.13552 15.8286 1.43232L10.902 4.27821C10.3882 4.57501 10.0695 5.12777 10.0695 5.72096V9.1938H5.26614L5.26655 9.19338ZM19.8745 16.7502L20.5603 16.064V9.76698L19.8745 9.08083H12.5682V20.9204H14.7978V16.751H16.1016L18.2799 20.9204H20.7666L18.4682 16.751H19.8749L19.8745 16.7502ZM18.3307 14.9485H14.7978V10.8821H18.3307V14.9485Z" fill="white"/>
</g>
<defs>
<clipPath id="clip0_6582_3265">
<rect width="33.3333" height="30" fill="white"/>
</clipPath>
</defs>
</svg>
