<svg xmlns="http://www.w3.org/2000/svg" width="90" height="74" viewBox="0 0 90 74" fill="none">
  <g clip-path="url(#clip0_3606_1569)">
    <path
      d="M89.0287 34.1334L81.98 21.8092C80.9678 20.0449 79.1059 18.9595 77.0888 18.9595H64.9715V14.9683C64.9715 12.9316 63.8927 11.0442 62.149 10.0296L47.7043 1.60711C45.9569 0.585065 43.8032 0.585065 42.0521 1.60711L27.6332 10.011C25.8858 11.033 24.8108 12.913 24.8108 14.9496V18.9595H12.712C10.6949 18.9595 8.83296 20.0449 7.82072 21.8055L0.757225 34.1334C-0.255012 35.8978 -0.255012 38.0761 0.757225 39.8442L7.82072 52.1945C8.83296 53.9589 10.6949 55.0443 12.712 55.0443H24.8145V59.0318C24.8145 61.0684 25.8895 62.9521 27.6332 63.9704L42.0558 72.3929C43.8032 73.415 45.9606 73.415 47.7117 72.3929L62.1564 63.9741C63.9038 62.9521 64.9789 61.0721 64.9789 59.0355V55.0443H77.0814C79.0985 55.0443 80.9678 53.9551 81.9726 52.1945L89.0361 39.8405C90.0484 38.0761 90.0484 35.9015 89.0361 34.1334H89.0287Z"
      fill="white" />
    <path
      d="M32.2623 36.89H24.785V28.2101H32.2623V36.89ZM35.528 40.7357L36.9762 39.2735V25.8266L35.528 24.3644H20.0674V49.6432H24.785V40.7395H27.5446L32.1551 49.6432H37.4195L32.5578 40.7395H35.5354H35.5317L35.528 40.7357Z"
      fill="black" />
    <path d="M45.3253 24.3606H40.6077V49.6394H45.3253V24.3606Z" fill="black" />
    <path
      d="M64.3399 24.3606L59.3304 37.3301L54.3616 24.3606H48.9531V49.6357H53.6707V33.518L57.9524 43.7048H60.6714L64.9938 33.4807V49.6357H69.7077V24.3606H64.3399Z"
      fill="black" />
  </g>
  <defs>
    <clipPath id="clip0_3606_1569">
      <rect width="89.7936" height="72.3152" fill="white" transform="translate(0 0.842407)" />
    </clipPath>
  </defs>
</svg>