<svg width="56" height="50" viewBox="0 0 56 50" fill="none" xmlns="http://www.w3.org/2000/svg">
<g clip-path="url(#clip0_948_726)">
<path d="M24.6253 17.8489H30.7551V24.9107H24.6253V17.8489ZM30.6661 35.2801L26.8871 28.0395H24.6253V35.2801H20.7573V14.7204H33.4335L34.6233 15.9121V26.8475L33.4335 28.0393H30.9935L34.9807 35.2799H30.6661V35.2801ZM55.2102 23.0203L51.0692 15.8381C50.3655 14.618 49.0653 13.8661 47.6584 13.8661H40.3633V8.89593C40.3633 7.48686 39.6125 6.18489 38.394 5.48048L29.8291 0.528246C28.6107 -0.176163 27.1091 -0.176163 25.8906 0.528246L17.3426 5.47031C16.1242 6.17498 15.3734 7.47695 15.3734 8.88603V13.8659H8.08915C6.68331 13.8659 5.38417 14.6162 4.67996 15.8347L0.529588 23.0193C-0.175672 24.24 -0.176453 25.7449 0.527767 26.9664L4.67735 34.1634C5.38105 35.3836 6.68123 36.1354 8.08811 36.1354H15.3734V41.1028C15.3734 42.5105 16.1226 43.8115 17.3395 44.5167L25.8896 49.4702C27.1085 50.1764 28.6114 50.1769 29.8312 49.472L38.394 44.5214C39.6125 43.8169 40.3633 42.5147 40.3633 41.1056V36.1354H47.6485C49.0557 36.1354 50.3559 35.3836 51.0593 34.1634L55.2099 26.9643C55.9134 25.7442 55.9134 24.2405 55.2099 23.0203" fill="black"/>
</g>
<defs>
<clipPath id="clip0_948_726">
<rect width="55.7377" height="50" fill="white"/>
</clipPath>
</defs>
</svg>
