
<svg width="64" height="54" viewBox="0 0 64 54" fill="none" xmlns="http://www.w3.org/2000/svg">
<g clip-path="url(#clip0_6169_6485)">
<g clip-path="url(#clip1_6169_6485)">
<path d="M38.3567 41.1581H37.667C37.1906 41.1581 36.9366 41.338 36.8572 41.6841L36.8095 41.8914L36.7074 42.3127H37.3971L37.4991 41.8914L37.5468 41.6841H38.2364L38.1888 41.8914L37.9256 43.0073H37.3381L37.2178 43.5333H37.7963L37.5423 44.656L37.4946 44.8633H36.805L36.8526 44.656L36.9479 44.2347H36.2583L36.163 44.656L36.1153 44.8633C36.045 45.1662 36.2809 45.3893 36.6802 45.3893H37.3698C37.8553 45.3893 38.1071 45.2094 38.1865 44.8633L38.2341 44.656L38.4655 43.6404C38.4973 43.5014 38.4497 43.3694 38.3067 43.276C38.4882 43.2099 38.5994 43.0892 38.6311 42.9321L38.8761 41.8868L38.9238 41.6796C38.9941 41.3767 38.7582 41.1535 38.3521 41.1535L38.3567 41.1581ZM36.3399 41.8914L36.3876 41.6841C36.4579 41.3812 36.222 41.1581 35.8159 41.1581H35.1263C34.6408 41.1581 34.3958 41.338 34.3164 41.6841L34.2687 41.8914L34.1667 42.3127H34.8563L34.9584 41.8914L35.006 41.6841H35.6957L35.648 41.8914L35.5459 42.3446L34.1485 43.6791C33.8627 43.9273 33.7606 44.0594 33.6948 44.3122L33.5678 44.861L33.4475 45.3871H35.5187L35.6389 44.861L35.6866 44.6492L35.7887 44.2279H35.099L34.9969 44.6492L34.9493 44.861H34.2597L34.4117 44.2029L35.8091 42.8683C36.0949 42.6201 36.197 42.488 36.2537 42.2512L36.3422 41.8868L36.3399 41.8914ZM33.8967 41.1581H33.2071L33.0074 42.2466H33.5859L33.8967 41.1581ZM30.6845 41.6841H31.3741L30.5166 45.3871H31.2062L32.0637 41.6841H32.7534L32.8736 41.1581H30.8024L30.6822 41.6841H30.6845ZM29.7702 41.1581H29.0806C28.6042 41.1581 28.3501 41.338 28.2707 41.6841L28.248 41.7752L28.0099 42.8069L27.9622 43.0073C27.8919 43.3101 28.1278 43.5333 28.5339 43.5333H29.2235L29.2008 43.629L28.9626 44.656L28.915 44.8633H28.2254L28.273 44.656L28.3751 44.2347H27.6855L27.5834 44.656L27.5357 44.8633C27.4654 45.1662 27.7013 45.3893 28.1074 45.3893H28.797C29.2825 45.3893 29.5275 45.2094 29.6069 44.8633L29.6296 44.7722L29.8678 43.7406L29.9154 43.5333C29.9857 43.2373 29.7498 43.0073 29.3438 43.0073H28.6541L28.6768 42.9162L28.915 41.8891L28.9626 41.6819H29.6523L29.6046 41.8891L29.5026 42.3104H30.1922L30.2943 41.8891L30.3419 41.6819C30.4122 41.379 30.1763 41.1558 29.7702 41.1558V41.1581ZM26.3516 41.6841H27.7308L27.8511 41.1581H25.7799L24.7976 45.3871H26.8688L26.9958 44.861H25.6075L25.9183 43.531H27.3066L27.4268 43.005H26.0476L26.3584 41.6819L26.3516 41.6841ZM49.8581 32.2241C49.8581 31.4885 49.4407 31.2016 48.9417 31.2016C47.6894 31.2016 46.6618 33.2034 46.6618 34.3192C46.6618 35.0434 47.0792 35.3714 47.5987 35.3714C48.8713 35.3714 49.8581 33.3058 49.8581 32.2241ZM44.1165 28.9106C44.1868 29.1565 44.3501 29.3 44.636 29.3C45.2462 29.3 45.8383 28.7375 45.684 28.2365C45.6137 27.9814 45.3279 27.7879 45.0012 27.7879C44.4409 27.7879 43.9622 28.3914 44.1165 28.9106ZM41.7164 28.1864C41.7164 27.9405 41.5439 27.8289 41.3284 27.8289C40.3394 27.8289 39.1189 30.2292 38.5404 32.1831C40.26 31.09 41.7164 28.8924 41.7164 28.1864ZM37.6534 28.1864C37.6534 27.9518 37.481 27.8289 37.2655 27.8289C36.2877 27.8289 35.0242 30.1791 34.4049 32.1626C36.1358 31.0581 37.6511 28.8924 37.6511 28.1864H37.6534ZM31.1177 31.7026C31.1177 31.3861 30.9136 31.2016 30.4962 31.2016C29.6205 31.2016 28.7857 32.0191 28.3388 32.8891C29.7135 33.0439 31.1177 32.4701 31.1177 31.7026ZM25.7322 28.1955C25.7322 28.0111 25.6097 27.8266 25.3443 27.8266C24.4188 27.8266 23.2573 30.0652 22.6561 31.9759C24.3462 30.9944 25.7322 28.8787 25.7322 28.1932V28.1955ZM19.4801 31.7026C19.4801 31.3861 19.276 31.2016 18.8586 31.2016C17.933 31.2016 17.0551 31.969 16.6286 32.8777C18.085 33.2762 19.4801 32.5498 19.4801 31.7026ZM6.94647 35.6993L8.45278 33.6247C8.15787 33.4812 7.96505 33.3491 7.89245 33.2876C7.50453 32.9597 7.76995 32.2856 8.23954 32.5725C8.38246 32.6636 8.60704 32.8185 8.91103 32.9825L10.0929 31.3473C10.3765 30.9488 11.4268 30.9488 11.1319 31.3564L9.73678 33.2671C9.99993 33.3286 10.2971 33.3696 10.6215 33.3696C12.3025 33.3696 13.7476 32.2856 13.7476 30.844C13.7476 29.4025 12.1913 28.5143 10.3674 28.5143C8.30987 28.5143 6.36573 29.6894 6.36573 31.3974C6.36573 31.8256 6.48823 32.3061 6.96689 32.9506C7.19148 33.2466 6.59031 33.5632 6.14114 33.0849C5.83489 32.7684 5.55132 32.0214 5.55132 31.3268C5.55132 29.4868 7.7813 27.6467 10.3674 27.6467C12.4341 27.6467 14.562 28.8537 14.562 30.8463C14.562 32.7069 13.0647 33.964 11.1002 34.1166C11.3452 35.0161 12.1891 35.3327 12.8515 35.3327C13.6568 35.3327 14.5824 34.8635 15.5805 33.5541C15.8142 32.0624 17.1889 30.4068 18.8177 30.4068C19.6934 30.4068 20.2946 30.8964 20.2946 31.6935C20.2946 33.2056 18.2982 34.1371 16.3949 33.6042C16.3745 33.7385 16.3654 33.8592 16.3654 33.9936C16.3654 34.9022 16.9757 35.3327 17.781 35.3327C19.0038 35.3327 20.6326 34.5652 21.5672 32.798C22.0345 30.3544 23.6838 27.0341 25.4146 27.0341C26.1497 27.0341 26.5648 27.4736 26.5648 28.0976C26.5648 29.3342 24.8248 31.7982 22.3907 32.9825C22.309 33.3719 22.2568 33.718 22.2568 33.9936C22.2568 34.8225 22.5926 35.3327 23.3367 35.3327C24.3257 35.3327 25.5666 34.383 25.7799 32.6636C25.5871 32.5407 25.392 32.4086 25.1991 32.2742C24.6796 31.9053 25.3216 31.3952 25.882 31.8051C26.2177 32.051 26.778 32.4701 27.4904 32.7137C28.0416 31.4771 29.2099 30.4045 30.4531 30.4045C31.3287 30.4045 31.9299 30.8941 31.9299 31.6912C31.9299 33.0713 29.8927 33.8888 28.062 33.6133C28.0212 33.7864 28.0008 33.9412 28.0008 34.0938C28.0008 35.0024 28.7131 35.3304 29.5184 35.3304C30.7094 35.3304 32.0932 34.6153 33.3364 32.9506C33.7946 30.4364 35.5346 27.0341 37.3381 27.0341C38.0096 27.0341 38.4882 27.4941 38.4882 28.0862C38.4882 29.3137 36.594 31.8575 34.1508 33.176C34.0805 33.5245 34.0374 33.841 34.0374 34.0961C34.0374 34.8203 34.271 35.3327 34.9947 35.3327C35.8091 35.3327 36.7664 34.4855 37.4991 32.9119C37.946 30.4683 39.6883 27.0341 41.5008 27.0341C42.1315 27.0341 42.5489 27.4622 42.5489 28.0862C42.5489 29.3228 40.7454 31.8688 38.2931 33.176C38.2319 33.4926 38.2024 33.7681 38.2024 33.9936C38.2024 34.8225 38.5495 35.3327 39.3412 35.3327C40.4414 35.3327 41.6324 34.1576 42.5376 32.3995C42.7508 31.9508 43.0162 31.427 43.3429 30.8053C43.5675 30.3658 44.5135 30.3658 44.1573 31.0513C43.2726 32.757 42.7939 33.7203 42.7939 34.424C42.7939 34.9136 42.9482 35.3327 43.6197 35.3327C44.425 35.3327 45.3596 34.3921 46.165 32.8595C46.6845 31.6115 47.7529 30.4068 48.9439 30.4068C49.5746 30.4068 50.1145 30.7233 50.4207 31.2449C50.8177 31.714 51.2556 32.0009 51.7229 32.0009C52.1902 32.0009 52.9343 31.796 53.5649 31.0809L53.6874 30.8349C53.9415 30.3544 54.858 30.3453 54.5313 31.0285C54.9782 30.6391 55.4887 30.3954 56.049 30.3954C56.9133 30.3954 57.5145 30.8759 57.5145 31.5614C57.5145 32.593 56.1193 34.1986 56.1193 34.8931C56.1193 35.1391 56.3031 35.3327 56.607 35.3327C56.8702 35.3327 57.0857 35.1892 57.2581 35.0161C57.7368 34.5356 58.1224 35.1892 57.6347 35.6902C57.3806 35.9544 56.9428 36.1297 56.4845 36.1297C55.711 36.1297 55.2527 35.6196 55.2527 35.0457C55.2527 34.0346 56.6774 32.3767 56.6774 31.6639C56.6774 31.3792 56.4324 31.1948 56.0467 31.1948C55.1506 31.1948 53.9687 32.2674 52.8912 34.2395L52.1471 35.7016C51.9225 36.1411 50.8858 36.1502 51.2102 35.5376L52.7778 32.5543C52.4102 32.7183 52.0337 32.8003 51.7183 32.8003C51.3508 32.8003 50.9833 32.6864 50.6589 32.5042C50.5251 34.2008 49.1935 36.173 47.5941 36.173C46.841 36.173 46.047 35.6629 45.8746 34.7314C45.1736 35.5786 44.3479 36.132 43.5743 36.132C42.5262 36.132 42.0045 35.4989 41.9455 34.629C41.0812 35.59 40.1216 36.132 39.3389 36.132C38.393 36.132 37.6194 35.5285 37.4243 34.506C36.6507 35.59 35.7637 36.132 34.9901 36.132C33.9716 36.132 33.2797 35.3964 33.2184 34.2418C32.0274 35.5285 30.6731 36.132 29.5547 36.132C28.273 36.132 27.1841 35.4989 27.1841 34.0983C27.1841 33.8729 27.2136 33.6383 27.2658 33.4129C26.9913 33.3218 26.7259 33.1988 26.4604 33.0644C26.1134 35.13 24.5458 36.132 23.3344 36.132C22.3272 36.132 21.5536 35.4465 21.4515 34.2714C20.3921 35.5376 18.9176 36.132 17.8173 36.132C16.7171 36.132 15.8822 35.6515 15.6282 34.6495C14.6391 35.7221 13.7453 36.132 12.8492 36.132C11.4427 36.132 10.4468 35.1596 10.254 34.1188C9.8865 34.0892 9.55302 34.0164 9.25585 33.9344L7.94236 35.7335C7.64745 36.132 6.62888 36.132 6.94421 35.7039H6.94647V35.6993ZM39.466 11.3069L37.4901 16.3967L35.5278 11.3069H33.3931V21.2269H35.2556V14.9005L36.9456 18.8972H38.0186L39.7223 14.8868V21.2269H41.5848V11.3069H39.466ZM30.1014 21.2269H31.9639V11.3069H30.1014V21.2269ZM26.8075 16.2236H23.8562V12.8167H26.8075V16.2236ZM28.0961 17.7335L28.6677 17.1596V11.883L28.0961 11.3091H21.9937V21.2292H23.8562V17.7357H24.9451L26.7644 21.2292H28.8424L26.9232 17.7357H28.0983L28.0961 17.7335ZM6.21827 24.6702C5.65794 24.6702 5.13618 24.9754 4.85715 25.465L1.20934 31.8985C0.937116 32.379 0.937116 32.9756 1.21161 33.4584L4.86849 39.86C5.14525 40.3473 5.66702 40.6502 6.22735 40.6502H17.7946V43.6882C17.7946 44.5854 18.2733 45.4212 19.0491 45.8721L30.723 52.654C31.4966 53.1027 32.4607 53.1049 33.2388 52.654L44.9309 45.879C45.7044 45.4303 46.1876 44.5923 46.1876 43.695V40.6525H57.705C58.2608 40.6525 58.778 40.3542 59.0571 39.8714L62.7729 33.4721C63.0542 32.987 63.0565 32.3812 62.7752 31.8962L59.0752 25.4604C58.7962 24.9754 58.2767 24.6748 57.7209 24.6748H46.1854V10.3162C46.1854 9.41667 45.7044 8.58089 44.9286 8.13226L33.2366 1.35721C32.463 0.908573 31.4989 0.908573 30.723 1.35721L19.0491 8.12315C18.2756 8.57178 17.7924 9.40984 17.7924 10.3071V24.6748H6.21827V24.6702ZM31.9866 53.9999C31.3764 53.9999 30.7661 53.8428 30.2217 53.5262L18.5478 46.7444C17.4634 46.1135 16.7897 44.9407 16.7897 43.6836V41.6591H6.23188C5.31086 41.6591 4.45562 41.1626 3.99737 40.3587L0.34049 33.9594C-0.110949 33.1692 -0.113217 32.1877 0.335953 31.3952L3.98376 24.9617C4.43974 24.1555 5.29725 23.6545 6.22054 23.6545H16.7897V10.3003C16.7897 9.04091 17.4657 7.86809 18.55 7.23954L30.2239 0.473603C31.3106 -0.157217 32.6604 -0.157217 33.747 0.473603L45.4413 7.25093C46.5279 7.88175 47.2017 9.05457 47.2017 10.3117V23.6568H57.7277C58.6442 23.6568 59.4994 24.151 59.9577 24.9503L63.6577 31.3861C64.1182 32.1877 64.1159 33.1806 63.6531 33.9799L59.9373 40.3792C59.4767 41.1695 58.6238 41.6614 57.7118 41.6614H47.204V43.6905C47.204 44.9498 46.5279 46.1226 45.4436 46.7512L33.7515 53.5262C33.2071 53.8405 32.5991 53.9976 31.9911 53.9976H31.9889L31.9866 53.9999Z" fill="black"/>
</g>
</g>
<defs>
<clipPath id="clip0_6169_6485">
<rect width="64" height="54" fill="black"/>
</clipPath>
<clipPath id="clip1_6169_6485">
<rect width="64" height="54" fill="black"/>
</clipPath>
</defs>
</svg>
