<svg width="244" height="205" viewBox="0 0 244 205" fill="none" xmlns="http://www.w3.org/2000/svg">
<g clip-path="url(#clip0_5443_10710)">
<path d="M147.412 157.279H144.737C142.894 157.279 141.911 157.982 141.605 159.311L141.419 160.107L141.019 161.741H143.693L144.093 160.107L144.276 159.311H146.95L146.764 160.107L145.751 164.432H143.476L143.015 166.464H145.258L144.273 170.81L144.09 171.606H141.416L141.601 170.81L141.97 169.173H139.296L138.927 170.81L138.744 171.606C138.469 172.774 139.389 173.638 140.926 173.638H143.6C145.475 173.638 146.457 172.939 146.764 171.606L146.95 170.81L147.839 166.883C147.96 166.346 147.777 165.83 147.226 165.479C147.932 165.224 148.363 164.755 148.487 164.146L149.438 160.104L149.621 159.308C149.897 158.14 148.977 157.276 147.409 157.276L147.412 157.279Z" fill="black"/>
<path d="M100.92 159.312H106.269L106.731 157.28H98.708L94.8965 173.638H102.919L103.412 171.606H98.0324L99.2317 166.464H104.608L105.07 164.432H99.7213L100.92 159.312Z" fill="black"/>
<path d="M130.142 157.28H127.468L126.699 161.486H128.943L130.142 157.28Z" fill="black"/>
<path d="M139.606 160.107L139.788 159.312C140.064 158.143 139.144 157.28 137.576 157.28H134.902C133.027 157.28 132.073 157.982 131.769 159.312L131.583 160.107L131.183 161.741H133.857L134.257 160.107L134.44 159.312H137.114L136.931 160.107L136.532 161.859L131.121 167.023C130.015 167.98 129.615 168.496 129.37 169.478L128.878 171.603L128.416 173.635H136.439L136.9 171.603L137.083 170.786L137.483 169.148H134.809L134.409 170.786L134.226 171.603H131.552L132.135 169.055L137.545 163.891C138.651 162.931 139.051 162.419 139.268 161.508L139.606 160.107Z" fill="black"/>
<path d="M114.165 157.28H111.49C109.647 157.28 108.664 157.982 108.355 159.312L108.262 159.663L107.338 163.658L107.155 164.429C106.88 165.597 107.8 166.461 109.368 166.461H112.039L111.949 166.837L111.026 170.811L110.843 171.606H108.169L108.351 170.811L108.751 169.173H106.077L105.677 170.811L105.494 171.606C105.219 172.774 106.139 173.638 107.707 173.638H110.381C112.256 173.638 113.207 172.939 113.514 171.606L113.607 171.255L114.527 167.259L114.71 166.464C114.986 165.32 114.066 164.432 112.498 164.432H109.826L109.919 164.081L110.843 160.107L111.026 159.312H113.7L113.514 160.107L113.114 161.741H115.785L116.185 160.107L116.371 159.312C116.647 158.143 115.723 157.28 114.159 157.28H114.165Z" fill="black"/>
<path d="M135.41 55.6899L141.954 71.1535H146.116L152.716 55.634V80.1638H159.93V41.783H151.719L144.065 61.4751L136.463 41.783H128.196V80.1638H135.41V55.6899Z" fill="black"/>
<path d="M171.743 111.402C174.107 111.402 176.397 109.227 175.805 107.291C175.526 106.303 174.423 105.551 173.162 105.551C170.993 105.551 169.14 107.884 169.732 109.901C170.007 110.848 170.64 111.405 171.743 111.405V111.402Z" fill="black"/>
<path d="M91.2527 66.6484H95.467L102.51 80.1638H110.555L103.121 66.6484H107.67L109.889 64.4238V44.0107L107.67 41.7861H84.0356V80.1638H91.2465V66.6484H91.2527ZM91.2527 47.6242H102.681V60.8072H91.2527V47.6242Z" fill="black"/>
<path d="M122.649 41.783H115.438V80.1607H122.649V41.783Z" fill="black"/>
<path d="M117.697 159.312H120.372L117.05 173.638H119.724L123.043 159.312H125.717L126.179 157.28H118.159L117.697 159.312Z" fill="black"/>
<path d="M242.909 128.505L228.518 153.262C227.083 155.735 224.443 157.255 221.592 157.255H178.929V167.066C178.929 171.255 176.701 175.123 173.087 177.214L127.799 203.431C124.18 205.525 119.72 205.525 116.101 203.425L70.8777 177.189C67.2677 175.095 65.0427 171.23 65.0427 167.048V157.255H22.1899C19.3173 157.255 16.6617 155.713 15.2332 153.215L1.0625 128.446C-0.35054 125.976 -0.353639 122.941 1.0501 120.468L15.1774 95.5837C16.6028 93.0701 19.2647 91.5197 22.1465 91.5197H65.0396V37.8897C65.0396 33.7046 67.2677 29.8333 70.8808 27.7423L116.101 1.56888C119.717 -0.525239 124.173 -0.525239 127.79 1.56888L173.084 27.7889C176.701 29.883 178.926 33.7512 178.926 37.9363V91.5228H221.651C224.518 91.5228 227.164 93.0577 228.596 95.5464L242.924 120.437C244.362 122.935 244.356 126.014 242.909 128.505Z" fill="black"/>
<path d="M220.648 133.505C219.979 134.176 219.148 134.732 218.122 134.732C216.939 134.732 216.229 133.98 216.229 133.033C216.229 130.345 221.63 124.137 221.63 120.142C221.63 117.491 219.303 115.633 215.95 115.633C213.781 115.633 211.81 116.584 210.075 118.085C211.336 115.434 207.788 115.475 206.803 117.333L206.328 118.28C203.884 121.049 201.005 121.838 199.189 121.838C197.373 121.838 195.678 120.732 194.141 118.911C192.957 116.895 190.866 115.667 188.421 115.667C183.807 115.667 179.667 120.334 177.656 125.159C174.541 131.091 170.913 134.729 167.795 134.729C165.192 134.729 164.6 133.107 164.6 131.212C164.6 128.484 166.454 124.765 169.884 118.162C171.266 115.512 167.597 115.512 166.729 117.215C165.468 119.629 164.442 121.642 163.615 123.385C160.104 130.186 155.49 134.732 151.232 134.732C148.155 134.732 146.817 132.756 146.817 129.553C146.817 128.683 146.934 127.617 147.17 126.39C156.674 121.328 163.655 111.482 163.655 106.698C163.655 104.287 162.038 102.624 159.593 102.624C152.574 102.624 145.828 115.91 144.096 125.361C141.254 131.451 137.548 134.732 134.394 134.732C131.596 134.732 130.684 132.756 130.684 129.947C130.684 128.959 130.843 127.732 131.118 126.39C140.582 121.288 147.917 111.442 147.917 106.698C147.917 104.405 146.064 102.624 143.461 102.624C136.479 102.624 129.736 115.792 127.961 125.52C123.148 131.967 117.787 134.732 113.17 134.732C110.056 134.732 107.295 133.467 107.295 129.947C107.295 129.354 107.372 128.76 107.534 128.089C114.633 129.155 122.519 125.992 122.519 120.654C122.519 117.569 120.192 115.671 116.802 115.671C111.99 115.671 107.456 119.825 105.324 124.609C102.563 123.662 100.394 122.04 99.0926 121.089C96.9234 119.508 94.4382 121.484 96.4493 122.907C97.1992 123.419 97.9491 123.935 98.6959 124.411C97.8685 131.053 93.0562 134.732 89.2323 134.732C86.3535 134.732 85.052 132.756 85.052 129.553C85.052 128.487 85.2504 127.142 85.5664 125.638C94.9929 121.052 101.736 111.523 101.736 106.735C101.736 104.324 100.118 102.624 97.2798 102.624C90.5771 102.624 84.1875 115.475 82.3716 124.926C78.743 131.768 72.4339 134.732 67.7021 134.732C64.5878 134.732 62.2203 133.073 62.2203 129.553C62.2203 129.04 62.2606 128.565 62.3381 128.049C69.7132 130.106 77.4446 126.508 77.4446 120.654C77.4446 117.569 75.1174 115.671 71.7243 115.671C65.4152 115.671 60.0915 122.077 59.1835 127.85C55.3194 132.911 51.7279 134.732 48.6137 134.732C46.051 134.732 42.7756 133.505 41.8305 130.025C49.441 129.431 55.2388 124.569 55.2388 117.373C55.2388 109.662 46.9961 104.995 38.992 104.995C28.9737 104.995 20.3374 112.113 20.3374 119.231C20.3374 121.919 21.4437 124.808 22.6243 126.032C24.3596 127.89 26.6868 126.666 25.8191 125.52C23.9661 123.028 23.4919 121.17 23.4919 119.508C23.4919 112.905 31.0251 108.357 38.992 108.357C46.051 108.357 52.0843 111.678 52.0843 117.373C52.0843 123.068 46.4848 127.139 39.9774 127.139C38.7162 127.139 37.5696 126.98 36.5471 126.744L41.9513 119.349C43.0947 117.768 39.0323 117.768 37.9291 119.309L33.3553 125.635C32.1716 125.001 31.3039 124.407 30.7524 124.053C28.9365 122.944 27.9139 125.557 29.4106 126.822C29.6864 127.061 30.4363 127.573 31.5797 128.127L25.7417 136.155C24.5176 137.814 28.4624 137.814 29.6058 136.273L34.694 129.313C35.8374 129.63 37.1389 129.907 38.5582 130.025C39.3081 134.058 43.1722 137.814 48.6137 137.814C52.0843 137.814 55.5549 136.233 59.3788 132.082C60.3642 135.956 63.717 137.814 67.857 137.814C71.9969 137.814 77.835 135.521 81.9378 130.618C82.3313 135.167 85.3278 137.814 89.2323 137.814C93.9269 137.814 99.9974 133.94 101.339 125.952C102.365 126.467 103.391 126.94 104.453 127.297C104.255 128.167 104.137 129.077 104.137 129.947C104.137 135.363 108.358 137.814 113.328 137.814C117.667 137.814 122.913 135.481 127.527 130.5C127.762 134.968 130.446 137.814 134.391 137.814C137.387 137.814 140.817 135.72 143.814 131.529C144.564 135.484 147.56 137.814 151.229 137.814C154.266 137.814 157.972 135.72 161.325 132.004C161.561 135.363 163.572 137.814 167.634 137.814C170.634 137.814 173.826 135.68 176.549 132.399C177.219 135.997 180.296 137.976 183.215 137.976C189.406 137.976 194.572 130.345 195.083 123.78C196.344 124.491 197.767 124.926 199.186 124.926C200.41 124.926 201.866 124.609 203.286 123.979L197.212 135.524C195.951 137.898 199.973 137.858 200.841 136.155L203.719 130.5C207.9 122.869 212.473 118.715 215.944 118.715C217.444 118.715 218.389 119.427 218.389 120.536C218.389 123.304 212.867 129.711 212.867 133.623C212.867 135.835 214.642 137.814 217.639 137.814C219.415 137.814 221.11 137.143 222.095 136.115C223.988 134.176 222.489 131.647 220.635 133.505H220.648ZM158.927 105.706C159.754 105.706 160.426 106.141 160.426 107.089C160.426 109.817 154.787 118.318 148.121 122.553C150.368 114.999 155.103 105.706 158.927 105.706ZM143.191 105.706C144.018 105.706 144.688 106.182 144.688 107.089C144.688 109.817 138.813 118.2 132.107 122.472C134.511 114.801 139.404 105.706 143.191 105.706ZM116.966 118.756C118.584 118.756 119.371 119.467 119.371 120.691C119.371 123.659 113.929 125.871 108.606 125.277C110.341 121.916 113.576 118.753 116.966 118.753V118.756ZM97.0102 105.706C98.0328 105.706 98.5069 106.418 98.5069 107.129C98.5069 109.78 93.146 117.964 86.5983 121.76C88.9255 114.366 93.4218 105.706 97.0102 105.706ZM71.8885 118.756C73.506 118.756 74.2962 119.467 74.2962 120.691C74.2962 123.972 68.892 126.781 63.2522 125.24C64.9101 121.72 68.3001 118.756 71.8885 118.756ZM183.221 134.887C181.21 134.887 179.592 133.623 179.592 130.814C179.592 126.502 183.574 118.753 188.427 118.753C190.361 118.753 191.975 119.859 191.975 122.708C191.975 126.899 188.151 134.887 183.221 134.887Z" fill="black"/>
<path d="M160.426 107.089C160.426 106.142 159.757 105.707 158.926 105.707C155.103 105.707 150.368 115 148.121 122.553C154.787 118.321 160.426 109.82 160.426 107.089Z" fill="white"/>
<path d="M102.681 47.624H91.2524V60.807H102.681V47.624Z" fill="white"/>
<path d="M188.427 118.756C183.577 118.756 179.592 126.505 179.592 130.817C179.592 133.626 181.21 134.891 183.221 134.891C188.151 134.891 191.975 126.902 191.975 122.711C191.975 119.865 190.357 118.756 188.427 118.756Z" fill="white"/>
<path d="M228.596 95.5464C227.164 93.0577 224.518 91.5259 221.651 91.5259H178.926V37.9394C178.926 33.7512 176.697 29.8861 173.084 27.792L127.787 1.56888C124.17 -0.525239 119.714 -0.525239 116.098 1.56888L70.8808 27.7454C67.2646 29.8364 65.0396 33.7077 65.0396 37.8928V91.5228H22.1434C19.2616 91.5228 16.5997 93.0732 15.1743 95.5868L1.0501 120.471C-0.353639 122.944 -0.35054 125.979 1.0625 128.45L15.2332 153.215C16.6617 155.713 19.3173 157.255 22.1899 157.255H65.0396V167.048C65.0396 171.23 67.2615 175.095 70.8746 177.189L116.098 203.425C119.717 205.522 124.177 205.525 127.796 203.431L173.084 177.214C176.701 175.12 178.926 171.252 178.926 167.066V157.255H221.589C224.443 157.255 227.08 155.735 228.515 153.262L242.906 128.505C244.353 126.014 244.359 122.935 242.921 120.437L228.593 95.5464H228.596ZM173.165 105.548C174.426 105.548 175.529 106.3 175.808 107.288C176.4 109.223 174.11 111.398 171.746 111.398C170.643 111.398 170.01 110.845 169.735 109.895C169.143 107.878 170.996 105.545 173.165 105.545V105.548ZM128.196 41.7828H136.463L144.064 61.475L151.718 41.7828H159.93V80.1605H152.719V55.6307L146.119 71.1502H141.957L135.413 55.6866V80.1605H128.202V41.7828H128.196ZM115.438 41.7828H122.649V80.1605H115.438V41.7828ZM84.0382 41.7828H107.672L109.891 44.0074V64.4204L107.672 66.645H103.123L110.557 80.1605H102.513L95.4695 66.645H91.2552V80.1605H84.0444V41.7828H84.0382ZM104.608 166.464H99.2314L98.0322 171.606H103.412L102.919 173.638H94.8963L98.7077 157.276H106.73L106.269 159.308H100.92L99.721 164.429H105.066L104.605 166.461L104.608 166.464ZM116.377 159.311L116.191 160.107L115.791 161.741H113.12L113.52 160.107L113.706 159.311H111.032L110.849 160.107L109.925 164.081L109.832 164.432H112.503C114.071 164.432 114.995 165.32 114.716 166.464L114.533 167.259L113.613 171.255L113.52 171.606C113.213 172.939 112.259 173.638 110.387 173.638H107.713C106.145 173.638 105.224 172.774 105.5 171.606L105.683 170.81L106.083 169.173H108.757L108.357 170.81L108.174 171.606H110.849L111.032 170.81L111.955 166.837L112.045 166.461H109.374C107.806 166.461 106.885 165.597 107.161 164.429L107.344 163.658L108.267 159.662L108.36 159.311C108.667 157.978 109.653 157.279 111.496 157.279H114.171C115.735 157.279 116.659 158.146 116.383 159.311H116.377ZM125.717 159.311H123.042L119.724 173.638H117.049L120.368 159.311H117.694L118.156 157.279H126.178L125.717 159.311ZM126.699 161.486L127.467 157.279H130.142L128.942 161.486H126.699ZM137.548 163.894L132.137 169.058L131.555 171.606H134.229L134.412 170.789L134.811 169.151H137.486L137.086 170.789L136.903 171.606L136.441 173.638H128.419L128.88 171.606L129.373 169.481C129.618 168.499 130.021 167.983 131.124 167.026L136.534 161.862L136.934 160.11L137.117 159.314H134.443L134.26 160.11L133.86 161.744H131.186L131.586 160.11L131.772 159.314C132.078 157.982 133.033 157.283 134.904 157.283H137.579C139.147 157.283 140.067 158.149 139.791 159.314L139.608 160.11L139.271 161.511C139.054 162.421 138.654 162.937 137.548 163.894ZM149.624 159.311L149.441 160.107L148.489 164.149C148.365 164.755 147.938 165.224 147.228 165.482C147.783 165.833 147.966 166.349 147.842 166.886L146.952 170.814L146.767 171.609C146.46 172.942 145.477 173.641 143.603 173.641H140.928C139.391 173.641 138.471 172.777 138.747 171.609L138.93 170.814L139.298 169.176H141.973L141.604 170.814L141.418 171.609H144.092L144.275 170.814L145.261 166.467H143.017L143.479 164.435H145.753L146.767 160.11L146.952 159.314H144.278L144.095 160.11L143.696 161.744H141.021L141.421 160.11L141.607 159.314C141.914 157.982 142.896 157.283 144.74 157.283H147.414C148.979 157.283 149.902 158.149 149.627 159.314L149.624 159.311ZM222.104 136.115C221.118 137.143 219.423 137.814 217.648 137.814C214.648 137.814 212.876 135.838 212.876 133.623C212.876 129.708 218.398 123.301 218.398 120.536C218.398 119.427 217.452 118.715 215.953 118.715C212.482 118.715 207.908 122.866 203.728 130.5L200.849 136.155C199.982 137.854 195.959 137.895 197.221 135.524L203.294 123.979C201.875 124.612 200.415 124.926 199.195 124.926C197.775 124.926 196.356 124.491 195.092 123.78C194.58 130.345 189.415 137.976 183.224 137.976C180.304 137.976 177.23 136 176.558 132.399C173.837 135.68 170.643 137.814 167.643 137.814C163.58 137.814 161.569 135.363 161.334 132.004C157.981 135.72 154.272 137.814 151.238 137.814C147.569 137.814 144.573 135.481 143.823 131.529C140.826 135.72 137.396 137.814 134.399 137.814C130.455 137.814 127.774 134.968 127.536 130.5C122.922 135.481 117.675 137.814 113.337 137.814C108.367 137.814 104.146 135.363 104.146 129.947C104.146 129.077 104.264 128.167 104.462 127.297C103.399 126.943 102.37 126.467 101.348 125.951C100.006 133.94 93.9325 137.814 89.241 137.814C85.3366 137.814 82.3401 135.167 81.9465 130.618C77.8438 135.521 72.1265 137.814 67.8657 137.814C63.6049 137.814 60.3729 135.956 59.3875 132.082C55.5636 136.236 52.093 137.814 48.6224 137.814C43.1809 137.814 39.3168 134.058 38.5669 130.025C37.1476 129.907 35.8462 129.63 34.7027 129.313L29.6145 136.273C28.4711 137.814 24.5264 137.814 25.7504 136.155L31.5885 128.126C30.445 127.573 29.6951 127.061 29.4193 126.821C27.9195 125.557 28.9452 122.947 30.7611 124.053C31.3127 124.41 32.1803 125.001 33.364 125.635L37.9378 119.309C39.0441 117.765 43.1066 117.765 41.96 119.349L36.5558 126.744C37.5815 126.98 38.7249 127.138 39.9861 127.138C46.4935 127.138 52.093 122.947 52.093 117.373C52.093 111.799 46.0597 108.357 39.0007 108.357C31.0338 108.357 23.5007 112.905 23.5007 119.508C23.5007 121.17 23.9748 123.028 25.8278 125.52C26.6955 126.666 24.3683 127.893 22.633 126.032C21.4493 124.808 20.3461 121.922 20.3461 119.231C20.3461 112.113 28.9824 104.995 39.0007 104.995C47.0079 104.995 55.2475 109.658 55.2475 117.373C55.2475 124.569 49.4497 129.434 41.8392 130.025C42.7843 133.505 46.0597 134.732 48.6224 134.732C51.7366 134.732 55.3281 132.914 59.1923 127.85C60.1002 122.077 65.4239 115.67 71.733 115.67C75.1261 115.67 77.4533 117.569 77.4533 120.654C77.4533 126.508 69.7219 130.106 62.3468 128.049C62.2693 128.564 62.2291 129.037 62.2291 129.553C62.2291 133.073 64.5965 134.732 67.7108 134.732C72.4426 134.732 78.7548 131.768 82.3803 124.926C84.1931 115.478 90.5828 102.624 97.2885 102.624C100.127 102.624 101.745 104.324 101.745 106.735C101.745 111.519 95.0016 121.049 85.5752 125.638C85.2591 127.141 85.0608 128.484 85.0608 129.553C85.0608 132.756 86.3623 134.732 89.241 134.732C93.0649 134.732 97.8773 131.053 98.7046 124.41C97.9547 123.935 97.2048 123.422 96.458 122.907C94.4469 121.484 96.9321 119.504 99.1013 121.089C100.403 122.037 102.572 123.659 105.333 124.609C107.462 119.824 111.998 115.67 116.811 115.67C120.204 115.67 122.528 117.569 122.528 120.654C122.528 125.992 114.642 129.155 107.542 128.089C107.384 128.76 107.304 129.354 107.304 129.947C107.304 133.467 110.065 134.732 113.179 134.732C117.796 134.732 123.157 131.964 127.969 125.52C129.745 115.792 136.488 102.624 143.469 102.624C146.072 102.624 147.925 104.404 147.925 106.697C147.925 111.442 140.591 121.288 131.127 126.39C130.851 127.732 130.693 128.959 130.693 129.947C130.693 132.756 131.601 134.732 134.402 134.732C137.557 134.732 141.263 131.451 144.105 125.361C145.84 115.91 152.583 102.624 159.602 102.624C162.047 102.624 163.664 104.286 163.664 106.697C163.664 111.482 156.683 121.328 147.179 126.39C146.943 127.617 146.825 128.683 146.825 129.553C146.825 132.756 148.167 134.732 151.241 134.732C155.502 134.732 160.116 130.183 163.624 123.385C164.451 121.645 165.477 119.629 166.738 117.215C167.606 115.515 171.275 115.515 169.893 118.162C166.462 124.765 164.609 128.484 164.609 131.212C164.609 133.11 165.201 134.729 167.804 134.729C170.921 134.729 174.55 131.09 177.664 125.159C179.675 120.334 183.815 115.667 188.429 115.667C190.874 115.667 192.966 116.895 194.15 118.911C195.687 120.732 197.382 121.838 199.198 121.838C201.014 121.838 203.892 121.049 206.337 118.28L206.811 117.333C207.797 115.475 211.348 115.434 210.084 118.085C211.819 116.581 213.79 115.633 215.959 115.633C219.312 115.633 221.639 117.491 221.639 120.141C221.639 124.134 216.238 130.345 216.238 133.032C216.238 133.98 216.947 134.732 218.131 134.732C219.157 134.732 219.984 134.179 220.657 133.505C222.51 131.647 224.009 134.176 222.116 136.115H222.104Z" fill="white"/>
<path d="M74.293 120.692C74.293 119.464 73.5028 118.756 71.8853 118.756C68.2969 118.756 64.9069 121.72 63.249 125.24C68.8888 126.784 74.293 123.976 74.293 120.692Z" fill="white"/>
<path d="M144.691 107.089C144.691 106.179 144.022 105.707 143.194 105.707C139.407 105.707 134.518 114.801 132.11 122.472C138.816 118.2 144.691 109.817 144.691 107.089Z" fill="white"/>
<path d="M119.371 120.692C119.371 119.464 118.583 118.756 116.966 118.756C113.576 118.756 110.341 121.919 108.605 125.281C113.929 125.874 119.371 123.659 119.371 120.695V120.692Z" fill="white"/>
<path d="M98.5096 107.13C98.5096 106.418 98.0355 105.707 97.0129 105.707C93.4215 105.707 88.9282 114.366 86.6011 121.76C93.1488 117.964 98.5096 109.78 98.5096 107.13Z" fill="white"/>
</g>
<defs>
<clipPath id="clip0_5443_10710">
<rect width="244" height="205" fill="white"/>
</clipPath>
</defs>
</svg>
