<svg width="364" height="305" viewBox="0 0 364 305" fill="none" xmlns="http://www.w3.org/2000/svg">
<g clip-path="url(#clip0_5443_10710)">
<path d="M219.909 234.001H215.92C213.169 234.001 211.704 235.046 211.246 237.024L210.969 238.208L210.372 240.639H214.362L214.958 238.208L215.231 237.024H219.22L218.943 238.208L217.431 244.642H214.038L213.349 247.666H216.696L215.226 254.133L214.954 255.316H210.964L211.241 254.133L211.792 251.697H207.802L207.252 254.133L206.979 255.316C206.568 257.054 207.941 258.339 210.234 258.339H214.223C217.02 258.339 218.485 257.299 218.943 255.316L219.22 254.133L220.547 248.29C220.727 247.49 220.455 246.723 219.632 246.2C220.686 245.821 221.328 245.123 221.513 244.217L222.932 238.203L223.205 237.02C223.617 235.282 222.244 233.997 219.904 233.997L219.909 234.001Z" fill="white"/>
<path d="M150.554 237.024H158.532L159.221 234.001H147.253L141.567 258.339H153.535L154.27 255.316H146.245L148.034 247.666H156.055L156.743 244.642H148.765L150.554 237.024Z" fill="white"/>
<path d="M194.146 234.001H190.157L189.01 240.26H192.357L194.146 234.001Z" fill="white"/>
<path d="M208.264 238.208L208.537 237.024C208.948 235.286 207.575 234.001 205.236 234.001H201.247C198.45 234.001 197.026 235.046 196.573 237.024L196.296 238.208L195.699 240.639H199.689L200.285 238.208L200.558 237.024H204.547L204.275 238.208L203.678 240.815L195.607 248.498C193.957 249.922 193.36 250.689 192.995 252.15L192.26 255.311L191.571 258.335H203.54L204.228 255.311L204.501 254.096L205.097 251.66H201.108L200.512 254.096L200.239 255.311H196.25L197.119 251.521L205.19 243.838C206.84 242.41 207.437 241.647 207.76 240.293L208.264 238.208Z" fill="white"/>
<path d="M170.312 234.001H166.322C163.572 234.001 162.106 235.046 161.644 237.024L161.505 237.547L160.128 243.491L159.855 244.638C159.444 246.376 160.816 247.661 163.156 247.661H167.14L167.006 248.22L165.629 254.133L165.356 255.316H161.367L161.639 254.133L162.236 251.697H158.246L157.65 254.133L157.377 255.316C156.966 257.054 158.339 258.339 160.678 258.339H164.667C167.464 258.339 168.883 257.299 169.341 255.316L169.479 254.794L170.852 248.849L171.125 247.666C171.537 245.965 170.164 244.642 167.825 244.642H163.84L163.978 244.12L165.356 238.208L165.629 237.024H169.618L169.341 238.208L168.744 240.639H172.729L173.326 238.208L173.603 237.024C174.014 235.286 172.637 234.001 170.302 234.001H170.312Z" fill="white"/>
<path d="M202.005 82.8556L211.768 105.862H217.977L227.823 82.7724V119.268H238.585V62.1648H226.334L214.916 91.4629L203.577 62.1648H191.243V119.268H202.005V82.8556Z" fill="white"/>
<path d="M256.207 165.744C259.734 165.744 263.15 162.508 262.267 159.628C261.851 158.158 260.205 157.039 258.324 157.039C255.088 157.039 252.324 160.511 253.206 163.511C253.618 164.921 254.561 165.748 256.207 165.748V165.744Z" fill="white"/>
<path d="M136.131 99.1596H142.418L152.925 119.268H164.926L153.836 99.1596H160.622L163.932 95.8498V65.4792L160.622 62.1694H125.364V119.268H136.121V99.1596H136.131ZM136.131 70.8553H153.179V90.4691H136.131V70.8553Z" fill="white"/>
<path d="M182.969 62.1648H172.211V119.263H182.969V62.1648Z" fill="white"/>
<path d="M175.581 237.024H179.571L174.615 258.339H178.605L183.556 237.024H187.545L188.234 234.001H176.27L175.581 237.024Z" fill="white"/>
<path d="M362.373 191.191L340.905 228.024C338.765 231.704 334.826 233.964 330.573 233.964H266.927V248.562C266.927 254.794 263.604 260.549 258.213 263.66L190.652 302.665C185.253 305.781 178.6 305.781 173.201 302.656L105.737 263.623C100.351 260.507 97.0319 254.757 97.0319 248.535V233.964H33.1039C28.8186 233.964 24.8569 231.671 22.7259 227.955L1.58601 191.103C-0.52196 187.428 -0.526583 182.912 1.56752 179.232L22.6426 142.21C24.7691 138.47 28.7401 136.164 33.0392 136.164H97.0273V56.3726C97.0273 50.146 100.351 44.3862 105.741 41.2752L173.201 2.33429C178.596 -0.781352 185.243 -0.781352 190.638 2.33429L258.209 41.3445C263.604 44.4602 266.923 50.2153 266.923 56.442V136.168H330.661C334.937 136.168 338.885 138.452 341.021 142.154L362.396 179.186C364.541 182.903 364.532 187.484 362.373 191.191Z" fill="white"/>
<path d="M329.163 198.629C328.164 199.627 326.925 200.455 325.395 200.455C323.629 200.455 322.571 199.336 322.571 197.926C322.571 193.928 330.628 184.692 330.628 178.747C330.628 174.804 327.156 172.04 322.155 172.04C318.919 172.04 315.979 173.454 313.39 175.687C315.271 171.744 309.978 171.804 308.508 174.568L307.801 175.978C304.154 180.097 299.859 181.271 297.15 181.271C294.441 181.271 291.913 179.625 289.62 176.917C287.854 173.916 284.733 172.091 281.086 172.091C274.203 172.091 268.027 179.034 265.027 186.213C260.381 195.037 254.968 200.45 250.317 200.45C246.434 200.45 245.551 198.037 245.551 195.217C245.551 191.159 248.315 185.626 253.433 175.803C255.495 171.859 250.021 171.859 248.727 174.393C246.845 177.984 245.315 180.98 244.081 183.573C238.843 193.692 231.96 200.455 225.608 200.455C221.018 200.455 219.021 197.515 219.021 192.749C219.021 191.455 219.197 189.869 219.548 188.043C233.726 180.513 244.141 165.864 244.141 158.745C244.141 155.158 241.728 152.685 238.081 152.685C227.61 152.685 217.546 172.451 214.962 186.513C210.723 195.573 205.194 200.455 200.488 200.455C196.314 200.455 194.955 197.515 194.955 193.336C194.955 191.866 195.191 190.04 195.602 188.043C209.72 180.453 220.662 165.804 220.662 158.745C220.662 155.334 217.898 152.685 214.015 152.685C203.6 152.685 193.54 172.275 190.892 186.749C183.712 196.341 175.715 200.455 168.827 200.455C164.181 200.455 160.062 198.573 160.062 193.336C160.062 192.453 160.178 191.57 160.418 190.572C171.009 192.157 182.774 187.451 182.774 179.51C182.774 174.92 179.302 172.095 174.245 172.095C167.066 172.095 160.303 178.276 157.122 185.394C153.004 183.985 149.768 181.572 147.826 180.157C144.59 177.804 140.883 180.744 143.883 182.861C145.002 183.624 146.12 184.391 147.234 185.099C146 194.982 138.821 200.455 133.116 200.455C128.822 200.455 126.88 197.515 126.88 192.749C126.88 191.163 127.176 189.162 127.648 186.925C141.71 180.102 151.769 165.924 151.769 158.801C151.769 155.213 149.356 152.685 145.122 152.685C135.123 152.685 125.591 171.804 122.882 185.866C117.468 196.045 108.057 200.455 100.998 200.455C96.3517 200.455 92.82 197.986 92.82 192.749C92.82 191.986 92.8801 191.279 92.9956 190.512C103.998 193.572 115.532 188.219 115.532 179.51C115.532 174.92 112.06 172.095 106.998 172.095C97.586 172.095 89.6441 181.627 88.2897 190.216C82.5251 197.746 77.1673 200.455 72.5215 200.455C68.6985 200.455 63.8122 198.629 62.4023 193.452C73.7557 192.569 82.4049 185.334 82.4049 174.628C82.4049 163.155 70.1084 156.212 58.1678 156.212C43.2225 156.212 30.3389 166.802 30.3389 177.393C30.3389 181.391 31.9892 185.69 33.7505 187.512C36.3392 190.276 39.8109 188.455 38.5165 186.749C35.7521 183.042 35.0448 180.277 35.0448 177.804C35.0448 167.981 46.2827 161.214 58.1678 161.214C68.6985 161.214 77.6989 166.155 77.6989 174.628C77.6989 183.102 69.3456 189.157 59.6379 189.157C57.7564 189.157 56.046 188.921 54.5205 188.57L62.5826 177.568C64.2883 175.215 58.2279 175.215 56.5822 177.508L49.759 186.92C47.9932 185.977 46.6988 185.094 45.8759 184.567C43.167 182.917 41.6415 186.804 43.8743 188.686C44.2857 189.042 45.4044 189.804 47.1102 190.627L38.4009 202.572C36.575 205.041 42.4597 205.041 44.1655 202.748L51.7561 192.393C53.4619 192.865 55.4034 193.276 57.5206 193.452C58.6393 199.452 64.4039 205.041 72.5215 205.041C77.699 205.041 82.8764 202.688 88.5809 196.512C90.0509 202.276 95.0528 205.041 101.229 205.041C107.405 205.041 116.114 201.629 122.235 194.335C122.822 201.102 127.292 205.041 133.116 205.041C140.12 205.041 149.176 199.276 151.178 187.391C152.708 188.159 154.238 188.861 155.823 189.393C155.528 190.687 155.352 192.042 155.352 193.336C155.352 201.393 161.648 205.041 169.063 205.041C175.535 205.041 183.361 201.569 190.244 194.159C190.596 200.806 194.599 205.041 200.484 205.041C204.954 205.041 210.071 201.925 214.542 195.689C215.66 201.574 220.131 205.041 225.604 205.041C230.134 205.041 235.663 201.925 240.665 196.396C241.016 201.393 244.016 205.041 250.077 205.041C254.551 205.041 259.313 201.865 263.376 196.983C264.375 202.336 268.965 205.281 273.32 205.281C282.556 205.281 290.262 193.928 291.025 184.16C292.906 185.219 295.028 185.866 297.146 185.866C298.972 185.866 301.144 185.394 303.261 184.456L294.201 201.634C292.319 205.165 298.32 205.105 299.614 202.572L303.909 194.159C310.145 182.806 316.968 176.625 322.145 176.625C324.383 176.625 325.793 177.684 325.793 179.334C325.793 183.453 317.555 192.985 317.555 198.805C317.555 202.096 320.204 205.041 324.674 205.041C327.323 205.041 329.851 204.042 331.322 202.512C334.146 199.627 331.909 195.865 329.144 198.629H329.163ZM237.087 157.27C238.321 157.27 239.324 157.918 239.324 159.328C239.324 163.386 230.911 176.034 220.967 182.334C224.319 171.097 231.382 157.27 237.087 157.27ZM213.612 157.27C214.847 157.27 215.845 157.978 215.845 159.328C215.845 163.386 207.08 175.858 197.077 182.214C200.664 170.801 207.963 157.27 213.612 157.27ZM174.49 176.685C176.903 176.685 178.077 177.744 178.077 179.565C178.077 183.98 169.96 187.271 162.018 186.388C164.607 181.387 169.433 176.681 174.49 176.681V176.685ZM144.72 157.27C146.245 157.27 146.952 158.329 146.952 159.388C146.952 163.331 138.955 175.507 129.187 181.156C132.659 170.154 139.366 157.27 144.72 157.27ZM107.243 176.685C109.656 176.685 110.835 177.744 110.835 179.565C110.835 184.447 102.773 188.626 94.3593 186.333C96.8325 181.095 101.89 176.685 107.243 176.685ZM273.329 200.686C270.329 200.686 267.916 198.805 267.916 194.626C267.916 188.21 273.856 176.681 281.095 176.681C283.98 176.681 286.388 178.326 286.388 182.565C286.388 188.801 280.684 200.686 273.329 200.686Z" fill="white"/>
<path d="M239.324 159.328C239.324 157.918 238.326 157.271 237.087 157.271C231.382 157.271 224.319 171.097 220.967 182.334C230.911 176.038 239.324 163.391 239.324 159.328Z" fill="black"/>
<path d="M153.18 70.8555H136.131V90.4692H153.18V70.8555Z" fill="black"/>
<path d="M281.095 176.686C273.861 176.686 267.916 188.214 267.916 194.631C267.916 198.809 270.329 200.691 273.329 200.691C280.684 200.691 286.389 188.806 286.389 182.57C286.389 178.336 283.975 176.686 281.095 176.686Z" fill="black"/>
<path d="M341.021 142.154C338.885 138.452 334.937 136.173 330.661 136.173H266.923V56.4466C266.923 50.2153 263.599 44.4648 258.209 41.3491L190.633 2.33429C185.239 -0.781352 178.591 -0.781352 173.196 2.33429L105.741 41.2798C100.346 44.3908 97.0273 50.1506 97.0273 56.3773V136.168H33.0346C28.7354 136.168 24.7645 138.475 22.638 142.215L1.56752 179.237C-0.526583 182.917 -0.52196 187.433 1.58601 191.108L22.7259 227.955C24.8569 231.671 28.8186 233.964 33.1039 233.964H97.0273V248.535C97.0273 254.757 100.342 260.507 105.732 263.623L173.196 302.656C178.596 305.776 185.248 305.781 190.647 302.665L258.209 263.66C263.604 260.544 266.923 254.789 266.923 248.562V233.964H330.569C334.826 233.964 338.76 231.704 340.901 228.024L362.369 191.191C364.527 187.484 364.537 182.903 362.392 179.186L341.016 142.154H341.021ZM258.329 157.035C260.21 157.035 261.856 158.153 262.272 159.623C263.155 162.503 259.739 165.739 256.212 165.739C254.566 165.739 253.623 164.916 253.212 163.502C252.329 160.502 255.093 157.03 258.329 157.03V157.035ZM191.244 62.1648H203.577L214.917 91.4629L226.335 62.1648H238.585V119.263H227.828V82.7678L217.982 105.858H211.773L202.01 82.851V119.263H191.253V62.1648H191.244ZM172.212 62.1648H182.969V119.263H172.212V62.1648ZM125.369 62.1648H160.627L163.937 65.4746V95.8451L160.627 99.1549H153.841L164.931 119.263H152.93L142.423 99.1549H136.136V119.263H125.379V62.1648H125.369ZM156.055 247.666H148.035L146.246 255.316H154.271L153.536 258.339H141.568L147.254 233.997H159.222L158.533 237.02H150.554L148.765 244.638H156.739L156.051 247.661L156.055 247.666ZM173.612 237.024L173.335 238.208L172.739 240.639H168.754L169.35 238.208L169.628 237.024H165.638L165.365 238.208L163.988 244.12L163.849 244.642H167.834C170.173 244.642 171.551 245.964 171.135 247.666L170.862 248.849L169.489 254.794L169.35 255.316C168.893 257.299 167.469 258.339 164.677 258.339H160.687C158.348 258.339 156.975 257.054 157.387 255.316L157.659 254.133L158.256 251.697H162.245L161.649 254.133L161.376 255.316H165.365L165.638 254.133L167.016 248.22L167.15 247.661H163.165C160.826 247.661 159.453 246.376 159.864 244.638L160.137 243.491L161.515 237.547L161.653 237.024C162.111 235.041 163.581 234.001 166.332 234.001H170.321C172.656 234.001 174.033 235.291 173.622 237.024H173.612ZM187.545 237.024H183.556L178.605 258.339H174.616L179.567 237.024H175.577L176.266 234.001H188.234L187.545 237.024ZM189.011 240.26L190.157 234.001H194.147L192.358 240.26H189.011ZM205.195 243.843L197.124 251.525L196.255 255.316H200.244L200.517 254.1L201.113 251.664H205.103L204.506 254.1L204.234 255.316L203.545 258.339H191.576L192.265 255.316L193 252.154C193.365 250.693 193.966 249.926 195.612 248.502L203.683 240.82L204.28 238.212L204.553 237.029H200.563L200.29 238.212L199.694 240.644H195.705L196.301 238.212L196.578 237.029C197.036 235.046 198.46 234.006 201.252 234.006H205.241C207.58 234.006 208.953 235.296 208.542 237.029L208.269 238.212L207.765 240.297C207.442 241.652 206.845 242.419 205.195 243.843ZM223.21 237.024L222.937 238.208L221.518 244.222C221.333 245.123 220.695 245.821 219.637 246.205C220.464 246.727 220.737 247.495 220.552 248.294L219.225 254.137L218.948 255.321C218.49 257.304 217.025 258.344 214.228 258.344H210.238C207.946 258.344 206.573 257.059 206.984 255.321L207.257 254.137L207.807 251.701H211.796L211.246 254.137L210.969 255.321H214.958L215.231 254.137L216.701 247.67H213.354L214.043 244.647H217.436L218.948 238.212L219.225 237.029H215.236L214.963 238.212L214.367 240.644H210.377L210.974 238.212L211.251 237.029C211.709 235.046 213.174 234.006 215.924 234.006H219.914C222.248 234.006 223.626 235.296 223.215 237.029L223.21 237.024ZM331.336 202.512C329.866 204.042 327.337 205.04 324.689 205.04C320.214 205.04 317.569 202.101 317.569 198.805C317.569 192.98 325.807 183.448 325.807 179.334C325.807 177.684 324.397 176.625 322.16 176.625C316.982 176.625 310.159 182.801 303.923 194.159L299.629 202.572C298.334 205.101 292.334 205.161 294.215 201.634L303.276 184.456C301.159 185.399 298.981 185.866 297.16 185.866C295.043 185.866 292.926 185.219 291.04 184.16C290.277 193.928 282.571 205.281 273.334 205.281C268.98 205.281 264.394 202.341 263.391 196.983C259.332 201.865 254.566 205.04 250.091 205.04C244.031 205.04 241.031 201.393 240.679 196.396C235.677 201.925 230.144 205.04 225.618 205.04C220.145 205.04 215.675 201.569 214.556 195.689C210.086 201.925 204.969 205.04 200.498 205.04C194.614 205.04 190.615 200.806 190.259 194.159C183.376 201.569 175.549 205.04 169.078 205.04C161.663 205.04 155.366 201.393 155.366 193.336C155.366 192.042 155.542 190.687 155.838 189.393C154.252 188.866 152.718 188.159 151.192 187.391C149.19 199.276 140.13 205.04 133.131 205.04C127.306 205.04 122.836 201.102 122.249 194.335C116.129 201.629 107.6 205.04 101.243 205.04C94.887 205.04 90.0655 202.276 88.5954 196.512C82.891 202.692 77.7135 205.04 72.536 205.04C64.4184 205.04 58.6539 199.452 57.5352 193.452C55.4179 193.276 53.4764 192.865 51.7706 192.393L44.18 202.748C42.4742 205.04 36.5895 205.04 38.4155 202.572L47.1247 190.627C45.4189 189.804 44.3002 189.042 43.8888 188.686C41.6514 186.804 43.1815 182.921 45.8905 184.567C46.7133 185.099 48.0077 185.977 49.7736 186.92L56.5967 177.508C58.2471 175.211 64.3075 175.211 62.5971 177.568L54.535 188.57C56.0651 188.921 57.7709 189.157 59.6524 189.157C69.3602 189.157 77.7135 182.921 77.7135 174.628C77.7135 166.335 68.713 161.214 58.1824 161.214C46.2973 161.214 35.0594 167.981 35.0594 177.804C35.0594 180.277 35.7666 183.041 38.531 186.749C39.8254 188.455 36.3537 190.28 33.765 187.512C31.9991 185.69 30.3534 181.396 30.3534 177.393C30.3534 166.802 43.237 156.212 58.1824 156.212C70.1275 156.212 82.4194 163.15 82.4194 174.628C82.4194 185.334 73.7703 192.573 62.4168 193.452C63.8267 198.629 68.713 200.455 72.536 200.455C77.1819 200.455 82.5396 197.751 88.3042 190.216C89.6587 181.627 97.6005 172.095 107.012 172.095C112.074 172.095 115.546 174.92 115.546 179.51C115.546 188.219 104.012 193.572 93.0102 190.512C92.8946 191.279 92.8345 191.982 92.8345 192.749C92.8345 197.986 96.3663 200.455 101.012 200.455C108.071 200.455 117.488 196.045 122.896 185.866C125.601 171.809 135.133 152.685 145.136 152.685C149.371 152.685 151.784 155.213 151.784 158.8C151.784 165.919 141.725 180.097 127.662 186.924C127.191 189.162 126.895 191.159 126.895 192.749C126.895 197.515 128.836 200.455 133.131 200.455C138.835 200.455 146.015 194.982 147.249 185.099C146.13 184.391 145.011 183.629 143.897 182.861C140.897 180.744 144.605 177.799 147.841 180.157C149.782 181.567 153.018 183.98 157.137 185.394C160.313 178.276 167.08 172.095 174.26 172.095C179.322 172.095 182.789 174.92 182.789 179.51C182.789 187.451 171.024 192.157 160.433 190.572C160.197 191.57 160.077 192.453 160.077 193.336C160.077 198.573 164.196 200.455 168.842 200.455C175.73 200.455 183.727 196.336 190.906 186.749C193.555 172.275 203.614 152.685 214.029 152.685C217.912 152.685 220.677 155.334 220.677 158.745C220.677 165.804 209.735 180.453 195.617 188.043C195.205 190.04 194.97 191.866 194.97 193.336C194.97 197.515 196.324 200.455 200.503 200.455C205.209 200.455 210.738 195.573 214.977 186.513C217.566 172.451 227.625 152.685 238.095 152.685C241.743 152.685 244.156 155.158 244.156 158.745C244.156 165.864 233.741 180.513 219.563 188.043C219.211 189.869 219.036 191.455 219.036 192.749C219.036 197.515 221.037 200.455 225.623 200.455C231.979 200.455 238.863 193.687 244.096 183.573C245.33 180.984 246.86 177.984 248.741 174.393C250.036 171.864 255.509 171.864 253.447 175.802C248.33 185.626 245.566 191.159 245.566 195.217C245.566 198.042 246.449 200.45 250.332 200.45C254.982 200.45 260.395 195.037 265.041 186.213C268.041 179.034 274.217 172.09 281.101 172.09C284.748 172.09 287.868 173.916 289.634 176.917C291.927 179.625 294.456 181.271 297.165 181.271C299.874 181.271 304.168 180.097 307.815 175.978L308.523 174.568C309.993 171.804 315.29 171.744 313.404 175.687C315.993 173.45 318.933 172.04 322.169 172.04C327.171 172.04 330.643 174.804 330.643 178.747C330.643 184.687 322.585 193.928 322.585 197.926C322.585 199.336 323.644 200.455 325.41 200.455C326.94 200.455 328.174 199.632 329.177 198.629C331.942 195.865 334.179 199.627 331.355 202.512H331.336Z" fill="black"/>
<path d="M110.83 179.565C110.83 177.74 109.652 176.686 107.239 176.686C101.885 176.686 96.8282 181.096 94.355 186.333C102.768 188.63 110.83 184.452 110.83 179.565Z" fill="black"/>
<path d="M215.85 159.328C215.85 157.973 214.851 157.271 213.617 157.271C207.968 157.271 200.673 170.801 197.082 182.214C207.085 175.858 215.85 163.386 215.85 159.328Z" fill="black"/>
<path d="M178.077 179.565C178.077 177.74 176.903 176.686 174.49 176.686C169.433 176.686 164.607 181.391 162.018 186.393C169.96 187.276 178.077 183.98 178.077 179.57V179.565Z" fill="black"/>
<path d="M146.957 159.388C146.957 158.329 146.25 157.271 144.724 157.271C139.367 157.271 132.664 170.154 129.192 181.156C138.96 175.507 146.957 163.331 146.957 159.388Z" fill="black"/>
</g>
<defs>
<clipPath id="clip0_5443_10710">
<rect width="364" height="305" fill="white"/>
</clipPath>
</defs>
</svg>
