<svg xmlns="http://www.w3.org/2000/svg" width="64" height="52" viewBox="0 0 64 52" fill="none">
  <g clip-path="url(#clip0_3606_1298)">
    <path d="M63.3094 23.9632L58.2969 15.2065C57.5771 13.9529 56.2531 13.1817 54.8187 13.1817H46.202V10.3458C46.202 8.89876 45.4349 7.5577 44.1949 6.83681L33.9231 0.852381C32.6805 0.126192 31.149 0.126192 29.9037 0.852381L19.6503 6.82356C18.4077 7.54975 17.6433 8.88551 17.6433 10.3326V13.1817H9.03967C7.60529 13.1817 6.28126 13.9529 5.56145 15.2039L0.538517 23.9632C-0.181296 25.2168 -0.181296 26.7646 0.538517 28.0208L5.56145 36.7961C6.28126 38.0497 7.60529 38.8209 9.03967 38.8209H17.6459V41.6541C17.6459 43.1012 18.4104 44.4396 19.6503 45.1631L29.9064 51.1476C31.149 51.8738 32.6832 51.8738 33.9284 51.1476L44.2002 45.1658C45.4428 44.4396 46.2072 43.1038 46.2072 41.6568V38.8209H54.8135C56.2478 38.8209 57.5771 38.047 58.2917 36.7961L63.3146 28.0182C64.0344 26.7646 64.0344 25.2195 63.3146 23.9632H63.3094Z" fill="black"/>
    <path d="M22.942 25.9218H17.6249V19.7545H22.942V25.9218ZM25.2644 28.6542L26.2942 27.6153V18.0609L25.2644 17.022H14.2701V34.9832H17.6249V28.6569H19.5873L22.8659 34.9832H26.6094L23.1522 28.6569H25.2696H25.267L25.2644 28.6542Z" fill="white"/>
    <path d="M32.2313 17.0194H28.8766V34.9807H32.2313V17.0194Z" fill="white"/>
    <path d="M45.7528 17.0194L42.1905 26.2346L38.6571 17.0194H34.8111V34.978H38.1658V23.526L41.2106 30.764H43.1441L46.2178 23.4994V34.978H49.5699V17.0194H45.7528Z" fill="white"/>
  </g>
  <defs>
    <clipPath id="clip0_3606_1298">
      <rect width="63.8532" height="51.3818" fill="white" transform="translate(0 0.309082)"/>
    </clipPath>
  </defs>
</svg>