<svg width="1199" height="643" viewBox="0 0 1199 643" fill="none" xmlns="http://www.w3.org/2000/svg">
<mask id="path-1-inside-1_6524_9308" fill="white">
<path d="M236.718 96.873L219.575 67.322C215.9 60.9819 209.042 57.0454 201.692 57.0454H175.831V40.9184C175.831 33.5986 171.873 26.7869 165.508 23.1225L130.026 2.7415C123.652 -0.913832 115.745 -0.913832 109.371 2.7415L73.9803 23.068C67.6061 26.7234 63.6576 33.5442 63.6576 40.864V57.0272H37.8417C30.5009 57.0272 23.6525 60.9637 19.9684 67.2857L2.7699 96.8549C-0.923301 103.195 -0.923301 111.077 2.7699 117.417L19.9593 147.032C23.6342 153.372 30.4917 157.308 37.8417 157.308H63.6576V173.417C63.6576 180.719 67.6153 187.54 73.9712 191.213L109.38 211.585C112.563 213.417 116.147 214.333 119.721 214.333C123.296 214.333 126.862 213.426 130.044 211.594L165.499 191.222C171.873 187.558 175.822 180.746 175.822 173.426V157.299H201.638C208.997 157.299 215.845 153.363 219.52 147.023L236.709 117.399C240.384 111.059 240.384 103.195 236.709 96.8549V96.873H236.718Z"/>
<path d="M236.718 311.206L219.575 281.655C215.9 275.315 209.042 271.379 201.692 271.379H175.831V255.252C175.831 247.932 171.873 241.12 165.508 237.456L130.026 217.075C123.652 213.419 115.745 213.419 109.371 217.075L73.9803 237.401C67.6061 241.057 63.6576 247.877 63.6576 255.197V271.36H37.8417C30.5009 271.36 23.6525 275.297 19.9684 281.619L2.7699 311.188C-0.923301 317.528 -0.923301 325.41 2.7699 331.75L19.9593 361.365C23.6342 367.705 30.4917 371.642 37.8417 371.642H63.6576V387.75C63.6576 395.052 67.6153 401.873 73.9712 405.546L109.38 425.918C112.563 427.75 116.147 428.667 119.721 428.667C123.296 428.667 126.862 427.76 130.044 425.927L165.499 405.555C171.873 401.891 175.822 395.079 175.822 387.759V371.633H201.638C208.997 371.633 215.845 367.696 219.52 361.356L236.709 331.732C240.384 325.392 240.384 317.528 236.709 311.188V311.206H236.718Z"/>
<path d="M236.718 525.54L219.575 495.989C215.9 489.648 209.042 485.712 201.692 485.712H175.831V469.585C175.831 462.265 171.873 455.453 165.508 451.789L130.026 431.408C123.652 427.753 115.745 427.753 109.371 431.408L73.9803 451.735C67.6061 455.39 63.6576 462.211 63.6576 469.53V485.694H37.8417C30.5009 485.694 23.6525 489.63 19.9684 495.952L2.7699 525.521C-0.923301 531.862 -0.923301 539.744 2.7699 546.084L19.9593 575.698C23.6342 582.038 30.4917 585.975 37.8417 585.975H63.6576V602.084C63.6576 609.385 67.6153 616.206 73.9712 619.88L109.38 640.252C112.563 642.084 116.147 643 119.721 643C123.296 643 126.862 642.093 130.044 640.261L165.499 619.889C171.873 616.224 175.822 609.413 175.822 602.093V585.966H201.638C208.997 585.966 215.845 582.029 219.52 575.689L236.709 546.066C240.384 539.725 240.384 531.862 236.709 525.521V525.54H236.718Z"/>
<path d="M476.184 96.873L459.04 67.322C455.365 60.9819 448.508 57.0454 441.158 57.0454H415.296V40.9184C415.296 33.5986 411.339 26.7869 404.973 23.1225L369.491 2.7415C363.117 -0.913832 355.211 -0.913832 348.837 2.7415L313.446 23.068C307.072 26.7234 303.123 33.5442 303.123 40.864V57.0272H277.307C269.966 57.0272 263.118 60.9637 259.434 67.2857L242.235 96.8549C238.542 103.195 238.542 111.077 242.235 117.417L259.425 147.032C263.1 153.372 269.957 157.308 277.307 157.308H303.123V173.417C303.123 180.719 307.081 187.54 313.437 191.213L348.846 211.585C352.028 213.417 355.612 214.333 359.187 214.333C362.762 214.333 366.327 213.426 369.51 211.594L404.964 191.222C411.339 187.558 415.287 180.746 415.287 173.426V157.299H441.103C448.462 157.299 455.31 153.363 458.985 147.023L476.175 117.399C479.85 111.059 479.85 103.195 476.175 96.8549V96.873H476.184Z"/>
<path d="M476.184 311.206L459.04 281.655C455.365 275.315 448.508 271.379 441.158 271.379H415.296V255.252C415.296 247.932 411.338 241.12 404.973 237.456L369.491 217.075C363.117 213.419 355.211 213.419 348.837 217.075L313.446 237.401C307.071 241.057 303.123 247.877 303.123 255.197V271.36H277.307C269.966 271.36 263.118 275.297 259.434 281.619L242.235 311.188C238.542 317.528 238.542 325.41 242.235 331.75L259.425 361.365C263.1 367.705 269.957 371.642 277.307 371.642H303.123V387.75C303.123 395.052 307.081 401.873 313.437 405.546L348.846 425.918C352.028 427.75 355.612 428.667 359.187 428.667C362.761 428.667 366.327 427.76 369.509 425.927L404.964 405.555C411.338 401.891 415.287 395.079 415.287 387.759V371.633H441.103C448.462 371.633 455.31 367.696 458.985 361.356L476.175 331.732C479.85 325.392 479.85 317.528 476.175 311.188V311.206H476.184Z"/>
<path d="M476.184 525.54L459.04 495.989C455.365 489.648 448.508 485.712 441.158 485.712H415.296V469.585C415.296 462.265 411.338 455.453 404.973 451.789L369.491 431.408C363.117 427.753 355.211 427.753 348.837 431.408L313.446 451.735C307.071 455.39 303.123 462.211 303.123 469.53V485.694H277.307C269.966 485.694 263.118 489.63 259.434 495.952L242.235 525.521C238.542 531.862 238.542 539.744 242.235 546.084L259.425 575.698C263.1 582.038 269.957 585.975 277.307 585.975H303.123V602.084C303.123 609.385 307.081 616.206 313.437 619.88L348.846 640.252C352.028 642.084 355.612 643 359.187 643C362.761 643 366.327 642.093 369.509 640.261L404.964 619.889C411.338 616.224 415.287 609.413 415.287 602.093V585.966H441.103C448.462 585.966 455.31 582.029 458.985 575.689L476.175 546.066C479.85 539.725 479.85 531.862 476.175 525.521V525.54H476.184Z"/>
<path d="M716.567 96.873L699.357 67.322C695.668 60.9819 688.783 57.0454 681.405 57.0454H655.443V40.9184C655.443 33.5986 651.47 26.7869 645.081 23.1225L609.461 2.7415C603.062 -0.913832 595.125 -0.913832 588.726 2.7415L553.198 23.068C546.799 26.7234 542.835 33.5442 542.835 40.864V57.0272H516.919C509.55 57.0272 502.675 60.9637 498.977 67.2857L481.712 96.8549C478.004 103.195 478.004 111.077 481.712 117.417L498.968 147.032C502.657 153.372 509.541 157.308 516.919 157.308H542.835V173.417C542.835 180.719 546.808 187.54 553.189 191.213L588.735 211.585C591.93 213.417 595.528 214.333 599.116 214.333C602.705 214.333 606.284 213.426 609.479 211.594L645.071 191.222C651.47 187.558 655.434 180.746 655.434 173.426V157.299H681.35C688.738 157.299 695.613 153.363 699.302 147.023L716.558 117.399C720.247 111.059 720.247 103.195 716.558 96.8549V96.873H716.567Z"/>
<path d="M716.567 311.206L699.357 281.655C695.668 275.315 688.784 271.379 681.405 271.379H655.443V255.252C655.443 247.932 651.47 241.12 645.081 237.456L609.461 217.075C603.062 213.419 595.125 213.419 588.726 217.075L553.198 237.401C546.799 241.057 542.836 247.877 542.836 255.197V271.36H516.919C509.55 271.36 502.675 275.297 498.977 281.619L481.712 311.188C478.004 317.528 478.004 325.41 481.712 331.75L498.968 361.365C502.657 367.705 509.541 371.642 516.919 371.642H542.836V387.75C542.836 395.052 546.808 401.873 553.189 405.546L588.735 425.918C591.93 427.75 595.528 428.667 599.117 428.667C602.705 428.667 606.284 427.76 609.479 425.927L645.071 405.555C651.47 401.891 655.434 395.079 655.434 387.759V371.633H681.35C688.738 371.633 695.613 367.696 699.302 361.356L716.558 331.732C720.247 325.392 720.247 317.528 716.558 311.188V311.206H716.567Z"/>
<path d="M716.567 525.54L699.357 495.989C695.668 489.648 688.784 485.712 681.405 485.712H655.443V469.585C655.443 462.265 651.47 455.453 645.081 451.789L609.461 431.408C603.062 427.753 595.125 427.753 588.726 431.408L553.198 451.735C546.799 455.39 542.836 462.211 542.836 469.53V485.694H516.919C509.55 485.694 502.675 489.63 498.977 495.952L481.712 525.521C478.004 531.862 478.004 539.744 481.712 546.084L498.968 575.698C502.657 582.038 509.541 585.975 516.919 585.975H542.836V602.084C542.836 609.385 546.808 616.206 553.189 619.88L588.735 640.252C591.93 642.084 595.528 643 599.117 643C602.705 643 606.284 642.093 609.479 640.261L645.071 619.889C651.47 616.224 655.434 609.413 655.434 602.093V585.966H681.35C688.738 585.966 695.613 582.029 699.302 575.689L716.558 546.066C720.247 539.725 720.247 531.862 716.558 525.521V525.54H716.567Z"/>
<path d="M956.043 96.873L938.899 67.322C935.224 60.9819 928.367 57.0454 921.017 57.0454H895.155V40.9184C895.155 33.5986 891.198 26.7869 884.833 23.1225L849.351 2.7415C842.976 -0.913832 835.07 -0.913832 828.696 2.7415L793.305 23.068C786.931 26.7234 782.982 33.5442 782.982 40.864V57.0272H757.166C749.826 57.0272 742.977 60.9637 739.293 67.2857L722.095 96.8549C718.401 103.195 718.401 111.077 722.095 117.417L739.284 147.032C742.959 153.372 749.816 157.308 757.166 157.308H782.982V173.417C782.982 180.719 786.94 187.54 793.296 191.213L828.705 211.585C831.888 213.417 835.471 214.333 839.046 214.333C842.621 214.333 846.186 213.426 849.369 211.594L884.824 191.222C891.198 187.558 895.146 180.746 895.146 173.426V157.299H920.962C928.321 157.299 935.17 153.363 938.845 147.023L956.034 117.399C959.709 111.059 959.709 103.195 956.034 96.8549V96.873H956.043Z"/>
<path d="M956.043 311.206L938.899 281.655C935.224 275.315 928.367 271.379 921.017 271.379H895.155V255.252C895.155 247.932 891.198 241.12 884.833 237.456L849.351 217.075C842.976 213.419 835.07 213.419 828.696 217.075L793.305 237.401C786.931 241.057 782.982 247.877 782.982 255.197V271.36H757.166C749.826 271.36 742.977 275.297 739.293 281.619L722.095 311.188C718.401 317.528 718.401 325.41 722.095 331.75L739.284 361.365C742.959 367.705 749.816 371.642 757.166 371.642H782.982V387.75C782.982 395.052 786.94 401.873 793.296 405.546L828.705 425.918C831.888 427.75 835.471 428.667 839.046 428.667C842.621 428.667 846.186 427.76 849.369 425.927L884.824 405.555C891.198 401.891 895.146 395.079 895.146 387.759V371.633H920.962C928.321 371.633 935.17 367.696 938.845 361.356L956.034 331.732C959.709 325.392 959.709 317.528 956.034 311.188V311.206H956.043Z"/>
<path d="M956.043 525.54L938.899 495.989C935.224 489.648 928.367 485.712 921.017 485.712H895.155V469.585C895.155 462.265 891.198 455.453 884.833 451.789L849.351 431.408C842.976 427.753 835.07 427.753 828.696 431.408L793.305 451.735C786.931 455.39 782.982 462.211 782.982 469.53V485.694H757.166C749.826 485.694 742.977 489.63 739.293 495.952L722.095 525.521C718.401 531.862 718.401 539.744 722.095 546.084L739.284 575.698C742.959 582.038 749.816 585.975 757.166 585.975H782.982V602.084C782.982 609.385 786.94 616.206 793.296 619.88L828.705 640.252C831.888 642.084 835.471 643 839.046 643C842.621 643 846.186 642.093 849.369 640.261L884.824 619.889C891.198 616.224 895.146 609.413 895.146 602.093V585.966H920.962C928.321 585.966 935.17 582.029 938.845 575.689L956.034 546.066C959.709 539.725 959.709 531.862 956.034 525.521V525.54H956.043Z"/>
<path d="M1195.51 96.873L1178.36 67.322C1174.69 60.9819 1167.83 57.0454 1160.48 57.0454H1134.62V40.9184C1134.62 33.5986 1130.66 26.7869 1124.3 23.1225L1088.82 2.7415C1082.44 -0.913832 1074.54 -0.913832 1068.16 2.7415L1032.77 23.068C1026.4 26.7234 1022.45 33.5442 1022.45 40.864V57.0272H996.632C989.291 57.0272 982.443 60.9637 978.759 67.2857L961.56 96.8549C957.867 103.195 957.867 111.077 961.56 117.417L978.749 147.032C982.424 153.372 989.282 157.308 996.632 157.308H1022.45V173.417C1022.45 180.719 1026.41 187.54 1032.76 191.213L1068.17 211.585C1071.35 213.417 1074.94 214.333 1078.51 214.333C1082.09 214.333 1085.65 213.426 1088.83 211.594L1124.29 191.222C1130.66 187.558 1134.61 180.746 1134.61 173.426V157.299H1160.43C1167.79 157.299 1174.64 153.363 1178.31 147.023L1195.5 117.399C1199.17 111.059 1199.17 103.195 1195.5 96.8549V96.873H1195.51Z"/>
<path d="M1195.51 311.206L1178.36 281.655C1174.69 275.315 1167.83 271.379 1160.48 271.379H1134.62V255.252C1134.62 247.932 1130.66 241.12 1124.3 237.456L1088.82 217.075C1082.44 213.419 1074.54 213.419 1068.16 217.075L1032.77 237.401C1026.4 241.057 1022.45 247.877 1022.45 255.197V271.36H996.632C989.291 271.36 982.443 275.297 978.759 281.619L961.56 311.188C957.867 317.528 957.867 325.41 961.56 331.75L978.75 361.365C982.424 367.705 989.282 371.642 996.632 371.642H1022.45V387.75C1022.45 395.052 1026.41 401.873 1032.76 405.546L1068.17 425.918C1071.35 427.75 1074.94 428.667 1078.51 428.667C1082.09 428.667 1085.65 427.76 1088.83 425.927L1124.29 405.555C1130.66 401.891 1134.61 395.079 1134.61 387.759V371.633H1160.43C1167.79 371.633 1174.64 367.696 1178.31 361.356L1195.5 331.732C1199.17 325.392 1199.17 317.528 1195.5 311.188V311.206H1195.51Z"/>
<path d="M1195.51 525.54L1178.36 495.989C1174.69 489.648 1167.83 485.712 1160.48 485.712H1134.62V469.585C1134.62 462.265 1130.66 455.453 1124.3 451.789L1088.82 431.408C1082.44 427.753 1074.54 427.753 1068.16 431.408L1032.77 451.735C1026.4 455.39 1022.45 462.211 1022.45 469.53V485.694H996.632C989.291 485.694 982.443 489.63 978.759 495.952L961.56 525.521C957.867 531.862 957.867 539.744 961.56 546.084L978.75 575.698C982.424 582.038 989.282 585.975 996.632 585.975H1022.45V602.084C1022.45 609.385 1026.41 616.206 1032.76 619.88L1068.17 640.252C1071.35 642.084 1074.94 643 1078.51 643C1082.09 643 1085.65 642.093 1088.83 640.261L1124.29 619.889C1130.66 616.224 1134.61 609.413 1134.61 602.093V585.966H1160.43C1167.79 585.966 1174.64 582.029 1178.31 575.689L1195.5 546.066C1199.17 539.725 1199.17 531.862 1195.5 525.521V525.54H1195.51Z"/>
</mask>
<path d="M236.718 96.873L219.575 67.322C215.9 60.9819 209.042 57.0454 201.692 57.0454H175.831V40.9184C175.831 33.5986 171.873 26.7869 165.508 23.1225L130.026 2.7415C123.652 -0.913832 115.745 -0.913832 109.371 2.7415L73.9803 23.068C67.6061 26.7234 63.6576 33.5442 63.6576 40.864V57.0272H37.8417C30.5009 57.0272 23.6525 60.9637 19.9684 67.2857L2.7699 96.8549C-0.923301 103.195 -0.923301 111.077 2.7699 117.417L19.9593 147.032C23.6342 153.372 30.4917 157.308 37.8417 157.308H63.6576V173.417C63.6576 180.719 67.6153 187.54 73.9712 191.213L109.38 211.585C112.563 213.417 116.147 214.333 119.721 214.333C123.296 214.333 126.862 213.426 130.044 211.594L165.499 191.222C171.873 187.558 175.822 180.746 175.822 173.426V157.299H201.638C208.997 157.299 215.845 153.363 219.52 147.023L236.709 117.399C240.384 111.059 240.384 103.195 236.709 96.8549V96.873H236.718Z" stroke="white" stroke-opacity="0.24" stroke-width="4" mask="url(#path-1-inside-1_6524_9308)"/>
<path d="M236.718 311.206L219.575 281.655C215.9 275.315 209.042 271.379 201.692 271.379H175.831V255.252C175.831 247.932 171.873 241.12 165.508 237.456L130.026 217.075C123.652 213.419 115.745 213.419 109.371 217.075L73.9803 237.401C67.6061 241.057 63.6576 247.877 63.6576 255.197V271.36H37.8417C30.5009 271.36 23.6525 275.297 19.9684 281.619L2.7699 311.188C-0.923301 317.528 -0.923301 325.41 2.7699 331.75L19.9593 361.365C23.6342 367.705 30.4917 371.642 37.8417 371.642H63.6576V387.75C63.6576 395.052 67.6153 401.873 73.9712 405.546L109.38 425.918C112.563 427.75 116.147 428.667 119.721 428.667C123.296 428.667 126.862 427.76 130.044 425.927L165.499 405.555C171.873 401.891 175.822 395.079 175.822 387.759V371.633H201.638C208.997 371.633 215.845 367.696 219.52 361.356L236.709 331.732C240.384 325.392 240.384 317.528 236.709 311.188V311.206H236.718Z" stroke="white" stroke-opacity="0.24" stroke-width="4" mask="url(#path-1-inside-1_6524_9308)"/>
<path d="M236.718 525.54L219.575 495.989C215.9 489.648 209.042 485.712 201.692 485.712H175.831V469.585C175.831 462.265 171.873 455.453 165.508 451.789L130.026 431.408C123.652 427.753 115.745 427.753 109.371 431.408L73.9803 451.735C67.6061 455.39 63.6576 462.211 63.6576 469.53V485.694H37.8417C30.5009 485.694 23.6525 489.63 19.9684 495.952L2.7699 525.521C-0.923301 531.862 -0.923301 539.744 2.7699 546.084L19.9593 575.698C23.6342 582.038 30.4917 585.975 37.8417 585.975H63.6576V602.084C63.6576 609.385 67.6153 616.206 73.9712 619.88L109.38 640.252C112.563 642.084 116.147 643 119.721 643C123.296 643 126.862 642.093 130.044 640.261L165.499 619.889C171.873 616.224 175.822 609.413 175.822 602.093V585.966H201.638C208.997 585.966 215.845 582.029 219.52 575.689L236.709 546.066C240.384 539.725 240.384 531.862 236.709 525.521V525.54H236.718Z" stroke="white" stroke-opacity="0.24" stroke-width="4" mask="url(#path-1-inside-1_6524_9308)"/>
<path d="M476.184 96.873L459.04 67.322C455.365 60.9819 448.508 57.0454 441.158 57.0454H415.296V40.9184C415.296 33.5986 411.339 26.7869 404.973 23.1225L369.491 2.7415C363.117 -0.913832 355.211 -0.913832 348.837 2.7415L313.446 23.068C307.072 26.7234 303.123 33.5442 303.123 40.864V57.0272H277.307C269.966 57.0272 263.118 60.9637 259.434 67.2857L242.235 96.8549C238.542 103.195 238.542 111.077 242.235 117.417L259.425 147.032C263.1 153.372 269.957 157.308 277.307 157.308H303.123V173.417C303.123 180.719 307.081 187.54 313.437 191.213L348.846 211.585C352.028 213.417 355.612 214.333 359.187 214.333C362.762 214.333 366.327 213.426 369.51 211.594L404.964 191.222C411.339 187.558 415.287 180.746 415.287 173.426V157.299H441.103C448.462 157.299 455.31 153.363 458.985 147.023L476.175 117.399C479.85 111.059 479.85 103.195 476.175 96.8549V96.873H476.184Z" stroke="white" stroke-opacity="0.24" stroke-width="4" mask="url(#path-1-inside-1_6524_9308)"/>
<path d="M476.184 311.206L459.04 281.655C455.365 275.315 448.508 271.379 441.158 271.379H415.296V255.252C415.296 247.932 411.338 241.12 404.973 237.456L369.491 217.075C363.117 213.419 355.211 213.419 348.837 217.075L313.446 237.401C307.071 241.057 303.123 247.877 303.123 255.197V271.36H277.307C269.966 271.36 263.118 275.297 259.434 281.619L242.235 311.188C238.542 317.528 238.542 325.41 242.235 331.75L259.425 361.365C263.1 367.705 269.957 371.642 277.307 371.642H303.123V387.75C303.123 395.052 307.081 401.873 313.437 405.546L348.846 425.918C352.028 427.75 355.612 428.667 359.187 428.667C362.761 428.667 366.327 427.76 369.509 425.927L404.964 405.555C411.338 401.891 415.287 395.079 415.287 387.759V371.633H441.103C448.462 371.633 455.31 367.696 458.985 361.356L476.175 331.732C479.85 325.392 479.85 317.528 476.175 311.188V311.206H476.184Z" stroke="white" stroke-opacity="0.24" stroke-width="4" mask="url(#path-1-inside-1_6524_9308)"/>
<path d="M476.184 525.54L459.04 495.989C455.365 489.648 448.508 485.712 441.158 485.712H415.296V469.585C415.296 462.265 411.338 455.453 404.973 451.789L369.491 431.408C363.117 427.753 355.211 427.753 348.837 431.408L313.446 451.735C307.071 455.39 303.123 462.211 303.123 469.53V485.694H277.307C269.966 485.694 263.118 489.63 259.434 495.952L242.235 525.521C238.542 531.862 238.542 539.744 242.235 546.084L259.425 575.698C263.1 582.038 269.957 585.975 277.307 585.975H303.123V602.084C303.123 609.385 307.081 616.206 313.437 619.88L348.846 640.252C352.028 642.084 355.612 643 359.187 643C362.761 643 366.327 642.093 369.509 640.261L404.964 619.889C411.338 616.224 415.287 609.413 415.287 602.093V585.966H441.103C448.462 585.966 455.31 582.029 458.985 575.689L476.175 546.066C479.85 539.725 479.85 531.862 476.175 525.521V525.54H476.184Z" stroke="white" stroke-opacity="0.24" stroke-width="4" mask="url(#path-1-inside-1_6524_9308)"/>
<path d="M716.567 96.873L699.357 67.322C695.668 60.9819 688.783 57.0454 681.405 57.0454H655.443V40.9184C655.443 33.5986 651.47 26.7869 645.081 23.1225L609.461 2.7415C603.062 -0.913832 595.125 -0.913832 588.726 2.7415L553.198 23.068C546.799 26.7234 542.835 33.5442 542.835 40.864V57.0272H516.919C509.55 57.0272 502.675 60.9637 498.977 67.2857L481.712 96.8549C478.004 103.195 478.004 111.077 481.712 117.417L498.968 147.032C502.657 153.372 509.541 157.308 516.919 157.308H542.835V173.417C542.835 180.719 546.808 187.54 553.189 191.213L588.735 211.585C591.93 213.417 595.528 214.333 599.116 214.333C602.705 214.333 606.284 213.426 609.479 211.594L645.071 191.222C651.47 187.558 655.434 180.746 655.434 173.426V157.299H681.35C688.738 157.299 695.613 153.363 699.302 147.023L716.558 117.399C720.247 111.059 720.247 103.195 716.558 96.8549V96.873H716.567Z" stroke="white" stroke-opacity="0.24" stroke-width="4" mask="url(#path-1-inside-1_6524_9308)"/>
<path d="M716.567 311.206L699.357 281.655C695.668 275.315 688.784 271.379 681.405 271.379H655.443V255.252C655.443 247.932 651.47 241.12 645.081 237.456L609.461 217.075C603.062 213.419 595.125 213.419 588.726 217.075L553.198 237.401C546.799 241.057 542.836 247.877 542.836 255.197V271.36H516.919C509.55 271.36 502.675 275.297 498.977 281.619L481.712 311.188C478.004 317.528 478.004 325.41 481.712 331.75L498.968 361.365C502.657 367.705 509.541 371.642 516.919 371.642H542.836V387.75C542.836 395.052 546.808 401.873 553.189 405.546L588.735 425.918C591.93 427.75 595.528 428.667 599.117 428.667C602.705 428.667 606.284 427.76 609.479 425.927L645.071 405.555C651.47 401.891 655.434 395.079 655.434 387.759V371.633H681.35C688.738 371.633 695.613 367.696 699.302 361.356L716.558 331.732C720.247 325.392 720.247 317.528 716.558 311.188V311.206H716.567Z" stroke="white" stroke-opacity="0.24" stroke-width="4" mask="url(#path-1-inside-1_6524_9308)"/>
<path d="M716.567 525.54L699.357 495.989C695.668 489.648 688.784 485.712 681.405 485.712H655.443V469.585C655.443 462.265 651.47 455.453 645.081 451.789L609.461 431.408C603.062 427.753 595.125 427.753 588.726 431.408L553.198 451.735C546.799 455.39 542.836 462.211 542.836 469.53V485.694H516.919C509.55 485.694 502.675 489.63 498.977 495.952L481.712 525.521C478.004 531.862 478.004 539.744 481.712 546.084L498.968 575.698C502.657 582.038 509.541 585.975 516.919 585.975H542.836V602.084C542.836 609.385 546.808 616.206 553.189 619.88L588.735 640.252C591.93 642.084 595.528 643 599.117 643C602.705 643 606.284 642.093 609.479 640.261L645.071 619.889C651.47 616.224 655.434 609.413 655.434 602.093V585.966H681.35C688.738 585.966 695.613 582.029 699.302 575.689L716.558 546.066C720.247 539.725 720.247 531.862 716.558 525.521V525.54H716.567Z" stroke="white" stroke-opacity="0.24" stroke-width="4" mask="url(#path-1-inside-1_6524_9308)"/>
<path d="M956.043 96.873L938.899 67.322C935.224 60.9819 928.367 57.0454 921.017 57.0454H895.155V40.9184C895.155 33.5986 891.198 26.7869 884.833 23.1225L849.351 2.7415C842.976 -0.913832 835.07 -0.913832 828.696 2.7415L793.305 23.068C786.931 26.7234 782.982 33.5442 782.982 40.864V57.0272H757.166C749.826 57.0272 742.977 60.9637 739.293 67.2857L722.095 96.8549C718.401 103.195 718.401 111.077 722.095 117.417L739.284 147.032C742.959 153.372 749.816 157.308 757.166 157.308H782.982V173.417C782.982 180.719 786.94 187.54 793.296 191.213L828.705 211.585C831.888 213.417 835.471 214.333 839.046 214.333C842.621 214.333 846.186 213.426 849.369 211.594L884.824 191.222C891.198 187.558 895.146 180.746 895.146 173.426V157.299H920.962C928.321 157.299 935.17 153.363 938.845 147.023L956.034 117.399C959.709 111.059 959.709 103.195 956.034 96.8549V96.873H956.043Z" stroke="white" stroke-opacity="0.24" stroke-width="4" mask="url(#path-1-inside-1_6524_9308)"/>
<path d="M956.043 311.206L938.899 281.655C935.224 275.315 928.367 271.379 921.017 271.379H895.155V255.252C895.155 247.932 891.198 241.12 884.833 237.456L849.351 217.075C842.976 213.419 835.07 213.419 828.696 217.075L793.305 237.401C786.931 241.057 782.982 247.877 782.982 255.197V271.36H757.166C749.826 271.36 742.977 275.297 739.293 281.619L722.095 311.188C718.401 317.528 718.401 325.41 722.095 331.75L739.284 361.365C742.959 367.705 749.816 371.642 757.166 371.642H782.982V387.75C782.982 395.052 786.94 401.873 793.296 405.546L828.705 425.918C831.888 427.75 835.471 428.667 839.046 428.667C842.621 428.667 846.186 427.76 849.369 425.927L884.824 405.555C891.198 401.891 895.146 395.079 895.146 387.759V371.633H920.962C928.321 371.633 935.17 367.696 938.845 361.356L956.034 331.732C959.709 325.392 959.709 317.528 956.034 311.188V311.206H956.043Z" stroke="white" stroke-opacity="0.24" stroke-width="4" mask="url(#path-1-inside-1_6524_9308)"/>
<path d="M956.043 525.54L938.899 495.989C935.224 489.648 928.367 485.712 921.017 485.712H895.155V469.585C895.155 462.265 891.198 455.453 884.833 451.789L849.351 431.408C842.976 427.753 835.07 427.753 828.696 431.408L793.305 451.735C786.931 455.39 782.982 462.211 782.982 469.53V485.694H757.166C749.826 485.694 742.977 489.63 739.293 495.952L722.095 525.521C718.401 531.862 718.401 539.744 722.095 546.084L739.284 575.698C742.959 582.038 749.816 585.975 757.166 585.975H782.982V602.084C782.982 609.385 786.94 616.206 793.296 619.88L828.705 640.252C831.888 642.084 835.471 643 839.046 643C842.621 643 846.186 642.093 849.369 640.261L884.824 619.889C891.198 616.224 895.146 609.413 895.146 602.093V585.966H920.962C928.321 585.966 935.17 582.029 938.845 575.689L956.034 546.066C959.709 539.725 959.709 531.862 956.034 525.521V525.54H956.043Z" stroke="white" stroke-opacity="0.24" stroke-width="4" mask="url(#path-1-inside-1_6524_9308)"/>
<path d="M1195.51 96.873L1178.36 67.322C1174.69 60.9819 1167.83 57.0454 1160.48 57.0454H1134.62V40.9184C1134.62 33.5986 1130.66 26.7869 1124.3 23.1225L1088.82 2.7415C1082.44 -0.913832 1074.54 -0.913832 1068.16 2.7415L1032.77 23.068C1026.4 26.7234 1022.45 33.5442 1022.45 40.864V57.0272H996.632C989.291 57.0272 982.443 60.9637 978.759 67.2857L961.56 96.8549C957.867 103.195 957.867 111.077 961.56 117.417L978.749 147.032C982.424 153.372 989.282 157.308 996.632 157.308H1022.45V173.417C1022.45 180.719 1026.41 187.54 1032.76 191.213L1068.17 211.585C1071.35 213.417 1074.94 214.333 1078.51 214.333C1082.09 214.333 1085.65 213.426 1088.83 211.594L1124.29 191.222C1130.66 187.558 1134.61 180.746 1134.61 173.426V157.299H1160.43C1167.79 157.299 1174.64 153.363 1178.31 147.023L1195.5 117.399C1199.17 111.059 1199.17 103.195 1195.5 96.8549V96.873H1195.51Z" stroke="white" stroke-opacity="0.24" stroke-width="4" mask="url(#path-1-inside-1_6524_9308)"/>
<path d="M1195.51 311.206L1178.36 281.655C1174.69 275.315 1167.83 271.379 1160.48 271.379H1134.62V255.252C1134.62 247.932 1130.66 241.12 1124.3 237.456L1088.82 217.075C1082.44 213.419 1074.54 213.419 1068.16 217.075L1032.77 237.401C1026.4 241.057 1022.45 247.877 1022.45 255.197V271.36H996.632C989.291 271.36 982.443 275.297 978.759 281.619L961.56 311.188C957.867 317.528 957.867 325.41 961.56 331.75L978.75 361.365C982.424 367.705 989.282 371.642 996.632 371.642H1022.45V387.75C1022.45 395.052 1026.41 401.873 1032.76 405.546L1068.17 425.918C1071.35 427.75 1074.94 428.667 1078.51 428.667C1082.09 428.667 1085.65 427.76 1088.83 425.927L1124.29 405.555C1130.66 401.891 1134.61 395.079 1134.61 387.759V371.633H1160.43C1167.79 371.633 1174.64 367.696 1178.31 361.356L1195.5 331.732C1199.17 325.392 1199.17 317.528 1195.5 311.188V311.206H1195.51Z" stroke="white" stroke-opacity="0.24" stroke-width="4" mask="url(#path-1-inside-1_6524_9308)"/>
<path d="M1195.51 525.54L1178.36 495.989C1174.69 489.648 1167.83 485.712 1160.48 485.712H1134.62V469.585C1134.62 462.265 1130.66 455.453 1124.3 451.789L1088.82 431.408C1082.44 427.753 1074.54 427.753 1068.16 431.408L1032.77 451.735C1026.4 455.39 1022.45 462.211 1022.45 469.53V485.694H996.632C989.291 485.694 982.443 489.63 978.759 495.952L961.56 525.521C957.867 531.862 957.867 539.744 961.56 546.084L978.75 575.698C982.424 582.038 989.282 585.975 996.632 585.975H1022.45V602.084C1022.45 609.385 1026.41 616.206 1032.76 619.88L1068.17 640.252C1071.35 642.084 1074.94 643 1078.51 643C1082.09 643 1085.65 642.093 1088.83 640.261L1124.29 619.889C1130.66 616.224 1134.61 609.413 1134.61 602.093V585.966H1160.43C1167.79 585.966 1174.64 582.029 1178.31 575.689L1195.5 546.066C1199.17 539.725 1199.17 531.862 1195.5 525.521V525.54H1195.51Z" stroke="white" stroke-opacity="0.24" stroke-width="4" mask="url(#path-1-inside-1_6524_9308)"/>
</svg>
