<svg width="115" height="22" viewBox="0 0 115 22" fill="none" xmlns="http://www.w3.org/2000/svg">
<path d="M0.25 2C0.25 1.0335 1.0335 0.25 2 0.25H31C31.9665 0.25 32.75 1.0335 32.75 2V20C32.75 20.9665 31.9665 21.75 31 21.75H2C1.0335 21.75 0.25 20.9665 0.25 20V2Z" stroke="#A7A7A7" stroke-width="0.5"/>
<g clip-path="url(#clip0_3717_1705)">
<path d="M14.2715 14.8658H12.1506L13.4759 7.13867H15.5968L14.2715 14.8658Z" fill="#005CA9"/>
<path d="M10.3654 7.1383L8.34256 12.453L8.10278 11.3078L7.38783 7.83287C7.38783 7.83287 7.30064 7.13623 6.38078 7.13623H3.03924L3 7.26646C3 7.26646 4.0223 7.46905 5.21898 8.14915L7.06305 14.8634H9.27331L12.6476 7.1383H10.3632H10.3654Z" fill="#005CA9"/>
<path d="M27.0513 14.8658H29L27.302 7.13867H25.5953C24.8084 7.13867 24.6165 7.71542 24.6165 7.71542L21.4537 14.8679H23.664L24.1065 13.7206H26.8028L27.0513 14.8679V14.8658ZM24.7168 12.133L25.8307 9.241L26.4584 12.133H24.7168Z" fill="#005CA9"/>
<path d="M21.6172 8.9969L21.9202 7.33695C21.9202 7.33695 20.9851 7 20.0129 7C18.9601 7 16.4599 7.43618 16.4599 9.55917C16.4599 11.5561 19.3939 11.5809 19.3939 12.6289C19.3939 13.677 16.7629 13.4889 15.8932 12.8295L15.5771 14.5638C15.5771 14.5638 16.5253 15 17.9727 15C19.42 15 21.6041 14.2889 21.6041 12.354C21.6041 10.4191 18.644 10.1587 18.644 9.28424C18.644 8.40982 20.7104 8.52351 21.6172 8.9969Z" fill="#005CA9"/>
<path d="M8.10278 11.3102L7.38783 7.83531C7.38783 7.83531 7.30064 7.13867 6.38078 7.13867H3.03924L3 7.2689C3 7.2689 4.60647 7.58518 6.14973 8.76761C7.62324 9.89836 8.10278 11.3082 8.10278 11.3082V11.3102Z" fill="#F7A823"/>
</g>
<path d="M41.25 2C41.25 1.0335 42.0335 0.25 43 0.25H72C72.9665 0.25 73.75 1.0335 73.75 2V20C73.75 20.9665 72.9665 21.75 72 21.75H43C42.0335 21.75 41.25 20.9665 41.25 20V2Z" stroke="#A7A7A7" stroke-width="0.5"/>
<g clip-path="url(#clip1_3717_1705)">
<path d="M60.8761 4.70996H54.1178V17.2905H60.8761V4.70996Z" fill="#F16022"/>
<path d="M54.549 11C54.549 8.44817 55.7011 6.17703 57.5 4.70973C56.1878 3.63796 54.5306 3 52.7255 3C48.4561 3 45 6.58533 45 11C45 15.4147 48.4561 19 52.7255 19C54.5306 19 56.1878 18.362 57.5 17.2903C55.7011 15.823 54.549 13.5518 54.549 11Z" fill="#E91D25"/>
<path d="M70 11C70 15.4211 66.5439 19 62.2745 19C60.4694 19 58.8122 18.362 57.5 17.2903C59.2989 15.823 60.451 13.5518 60.451 11C60.451 8.44817 59.2989 6.17703 57.5 4.70973C58.8122 3.63796 60.4694 3 62.2745 3C66.5439 3 70 6.58533 70 11ZM69.2669 15.9569V15.7018H69.3654V15.6507H69.1129V15.7018H69.2114V15.9569H69.2669ZM69.7597 15.9569V15.6443H69.6796L69.5872 15.8549L69.4948 15.6443H69.4147V15.9569H69.4702V15.7209L69.5564 15.925H69.6119L69.6981 15.7209V15.9569H69.7536H69.7597Z" fill="#F69E1E"/>
</g>
<path d="M82.25 2C82.25 1.0335 83.0335 0.25 84 0.25H113C113.966 0.25 114.75 1.0335 114.75 2V20C114.75 20.9665 113.966 21.75 113 21.75H84C83.0335 21.75 82.25 20.9665 82.25 20V2Z" stroke="#A7A7A7" stroke-width="0.5"/>
<g clip-path="url(#clip2_3717_1705)">
<path d="M90.1219 7.41797C90.436 7.03125 90.6604 6.51562 90.5933 6C90.1219 6.02165 89.5611 6.30078 89.2243 6.66618C88.9324 6.9886 88.6632 7.52555 88.7307 8.01985C89.2692 8.08447 89.7855 7.80501 90.1219 7.41829M90.5929 8.14844C89.83 8.10547 89.1791 8.5568 88.8201 8.5568C88.4611 8.5568 87.8999 8.17008 87.2942 8.17008C86.5087 8.19173 85.7906 8.59977 85.3867 9.28727C84.5789 10.6409 85.1624 12.6388 85.9702 13.7347C86.3518 14.272 86.8228 14.8735 87.4289 14.8519C88.0123 14.8306 88.2367 14.4865 88.9324 14.4865C89.6282 14.4865 89.83 14.8519 90.4583 14.8302C91.0866 14.8086 91.4905 14.293 91.8721 13.7344C92.3209 13.1112 92.5004 12.5096 92.5004 12.4883C92.4781 12.4666 91.2661 12.0369 91.2661 10.7049C91.2435 9.58773 92.2085 9.05046 92.2534 9.02914C91.7371 8.2557 90.8845 8.16976 90.5929 8.14811" fill="black"/>
<path d="M97.1903 6.62305C98.8508 6.62305 99.9953 7.71891 99.9953 9.28711C99.9953 10.8553 98.8285 11.9728 97.1454 11.9728H95.3277V14.7445H94.0036V6.62305H97.1899H97.1903ZM95.328 10.9199H96.8316C97.9761 10.9199 98.6267 10.3184 98.6267 9.30843C98.6267 8.29851 97.9758 7.69694 96.8316 7.69694H95.3057V10.9196H95.328V10.9199ZM100.332 13.0897C100.332 12.0584 101.162 11.4139 102.643 11.328L104.348 11.242V10.7907C104.348 10.1245 103.877 9.7378 103.114 9.7378C102.351 9.7378 101.925 10.0815 101.813 10.5972H100.601C100.668 9.52295 101.633 8.72787 103.159 8.72787C104.685 8.72787 105.627 9.47998 105.627 10.6831V14.7651H104.416V13.7982H104.393C104.034 14.4644 103.249 14.8724 102.441 14.8724C101.184 14.8724 100.332 14.1419 100.332 13.089V13.0897ZM104.348 12.5527V12.0801L102.823 12.166C102.06 12.209 101.633 12.5314 101.633 13.047C101.633 13.5627 102.082 13.9064 102.755 13.9064C103.653 13.9064 104.348 13.3262 104.348 12.5527ZM106.749 16.9569V15.9686C106.839 15.9899 107.063 15.9899 107.153 15.9899C107.737 15.9899 108.051 15.7534 108.253 15.1519C108.253 15.1305 108.365 14.7865 108.365 14.7865L106.121 8.85678H107.49L109.061 13.6909H109.083L110.654 8.85678H112L109.689 15.1089C109.15 16.5485 108.544 16.9995 107.266 16.9995C107.176 16.9782 106.862 16.9782 106.749 16.9565V16.9569Z" fill="black"/>
</g>
<defs>
<clipPath id="clip0_3717_1705">
<rect width="26" height="8" fill="white" transform="translate(3 7)"/>
</clipPath>
<clipPath id="clip1_3717_1705">
<rect width="25" height="16" fill="white" transform="translate(45 3)"/>
</clipPath>
<clipPath id="clip2_3717_1705">
<rect width="27" height="11" fill="white" transform="translate(85 6)"/>
</clipPath>
</defs>
</svg>
