<svg width="20" height="20" viewBox="0 0 20 20" fill="none" xmlns="http://www.w3.org/2000/svg">
<path d="M12.5418 4.16634C13.3557 4.32515 14.1038 4.72322 14.6902 5.30962C15.2766 5.89602 15.6746 6.64406 15.8334 7.45801M12.5418 0.833008C14.2328 1.02087 15.8098 1.77815 17.0136 2.98051C18.2175 4.18287 18.9768 5.75885 19.1668 7.44967M18.3334 14.0997V16.5997C18.3344 16.8318 18.2868 17.0615 18.1939 17.2741C18.1009 17.4868 17.9645 17.6777 17.7935 17.8346C17.6225 17.9915 17.4206 18.1109 17.2007 18.1853C16.9809 18.2596 16.7479 18.2872 16.5168 18.2663C13.9525 17.9877 11.4893 17.1115 9.32511 15.708C7.31163 14.4286 5.60455 12.7215 4.32511 10.708C2.91676 8.53401 2.04031 6.05884 1.76677 3.48301C1.74595 3.25256 1.77334 3.02031 1.84719 2.80103C1.92105 2.58175 2.03975 2.38025 2.19575 2.20936C2.35174 2.03847 2.54161 1.90193 2.75327 1.80844C2.96492 1.71495 3.19372 1.66656 3.42511 1.66634H5.92511C6.32953 1.66236 6.7216 1.80557 7.02824 2.06928C7.33488 2.333 7.53517 2.69921 7.59177 3.09967C7.69729 3.89973 7.89298 4.68528 8.17511 5.44134C8.28723 5.73961 8.31149 6.06377 8.24503 6.37541C8.17857 6.68705 8.02416 6.9731 7.80011 7.19967L6.74177 8.25801C7.92807 10.3443 9.65549 12.0717 11.7418 13.258L12.8001 12.1997C13.0267 11.9756 13.3127 11.8212 13.6244 11.7548C13.936 11.6883 14.2602 11.7126 14.5584 11.8247C15.3145 12.1068 16.1001 12.3025 16.9001 12.408C17.3049 12.4651 17.6746 12.669 17.9389 12.9809C18.2032 13.2928 18.3436 13.691 18.3334 14.0997Z" stroke="black" stroke-width="1.5" stroke-linecap="round" stroke-linejoin="round"/>
</svg>
