<svg width="33" height="40" viewBox="0 0 33 40" fill="none" xmlns="http://www.w3.org/2000/svg">
<path d="M16.1242 22C15.5105 21.9929 14.9094 22.1725 14.4018 22.5146C13.8941 22.8567 13.5043 23.345 13.2847 23.9136C13.0652 24.4822 13.0264 25.104 13.1738 25.6951C13.3211 26.2863 13.6473 26.8184 14.1086 27.22V30C14.1086 30.5304 14.321 31.0391 14.699 31.4142C15.077 31.7893 15.5896 32 16.1242 32C16.6587 32 17.1713 31.7893 17.5493 31.4142C17.9273 31.0391 18.1397 30.5304 18.1397 30V27.22C18.601 26.8184 18.9272 26.2863 19.0746 25.6951C19.2219 25.104 19.1831 24.4822 18.9636 23.9136C18.744 23.345 18.3542 22.8567 17.8465 22.5146C17.3389 22.1725 16.7378 21.9929 16.1242 22ZM26.2017 14V10C26.2017 7.34784 25.1399 4.8043 23.25 2.92893C21.3601 1.05357 18.7969 0 16.1242 0C13.4514 0 10.8882 1.05357 8.99827 2.92893C7.10837 4.8043 6.04663 7.34784 6.04663 10V14C4.443 14 2.90505 14.6321 1.7711 15.7574C0.637164 16.8826 0.00012207 18.4087 0.00012207 20V34C0.00012207 35.5913 0.637164 37.1174 1.7711 38.2426C2.90505 39.3679 4.443 40 6.04663 40H26.2017C27.8053 40 29.3433 39.3679 30.4772 38.2426C31.6111 37.1174 32.2482 35.5913 32.2482 34V20C32.2482 18.4087 31.6111 16.8826 30.4772 15.7574C29.3433 14.6321 27.8053 14 26.2017 14ZM10.0776 10C10.0776 8.4087 10.7147 6.88258 11.8486 5.75736C12.9826 4.63214 14.5205 4 16.1242 4C17.7278 4 19.2657 4.63214 20.3997 5.75736C21.5336 6.88258 22.1707 8.4087 22.1707 10V14H10.0776V10ZM28.2172 34C28.2172 34.5304 28.0048 35.0391 27.6269 35.4142C27.2489 35.7893 26.7362 36 26.2017 36H6.04663C5.51209 36 4.99944 35.7893 4.62146 35.4142C4.24348 35.0391 4.03113 34.5304 4.03113 34V20C4.03113 19.4696 4.24348 18.9609 4.62146 18.5858C4.99944 18.2107 5.51209 18 6.04663 18H26.2017C26.7362 18 27.2489 18.2107 27.6269 18.5858C28.0048 18.9609 28.2172 19.4696 28.2172 20V34Z" fill="black"/>
</svg>
