<svg xmlns="http://www.w3.org/2000/svg" width="12" height="16" viewBox="0 0 12 16" fill="none">
  <path fill-rule="evenodd" clip-rule="evenodd"
    d="M6 0.450195C3.78579 0.450195 2 2.23598 2 4.4502V6.00024H0.5V15.5002H11.5V6.00024H10V4.4502C10 2.23598 8.21421 0.450195 6 0.450195ZM3.5 4.4502C3.5 3.06441 4.61421 1.9502 6 1.9502C7.38579 1.9502 8.5 3.06441 8.5 4.4502V6.0002H3.5V4.4502ZM2 7.50024V14.0002H10V7.50024H2ZM8.53039 10.0306L5.50006 13.061L3.46973 11.0306L4.53039 9.96997L5.50006 10.9396L7.46973 8.96997L8.53039 10.0306Z"
    fill="black" />
</svg>