<svg width="15" height="12" viewBox="0 0 15 12" fill="none" xmlns="http://www.w3.org/2000/svg">
<path d="M0.619717 4.20644C0.619717 5.90855 2.60398 7.29309 5.04291 7.29309C7.48177 7.29309 9.46599 5.90855 9.46599 4.20644C9.46599 2.50432 7.48177 1.11979 5.04291 1.11979C2.60398 1.11979 0.619717 2.50432 0.619717 4.20644ZM0 4.20644C0 2.16274 2.2622 0.499981 5.04291 0.499981C7.82347 0.499981 10.0858 2.16274 10.0858 4.20644C10.0858 6.25016 7.82347 7.9129 5.04291 7.9129C2.2622 7.9129 0 6.25016 0 4.20644Z" fill="#A7A7A7"/>
<path d="M3.49841 4.20646C3.49841 4.76004 4.2057 5.2273 5.04289 5.2273C5.87999 5.2273 6.58728 4.76004 6.58728 4.20646C6.58728 3.65287 5.87999 3.18561 5.04289 3.18561C4.2057 3.18561 3.49841 3.65287 3.49841 4.20646ZM2.87872 4.20646C2.87872 3.30155 3.84951 2.56581 5.04289 2.56581C6.23618 2.56581 7.20704 3.30155 7.20704 4.20646C7.20704 5.11136 6.23618 5.84711 5.04289 5.84711C3.84951 5.84711 2.87872 5.11136 2.87872 4.20646Z" fill="#A7A7A7"/>
<path d="M5.18646 11.5H14.1527C14.4374 11.5 14.6691 11.2688 14.6691 10.9837V7.81007C14.6691 7.52501 14.4374 7.2931 14.1527 7.2931H5.22015C5.04905 7.2931 4.91026 7.43183 4.91026 7.60301C4.91026 7.77418 5.04905 7.91292 5.22015 7.91292H14.0494V10.8802H5.18646C4.71908 10.8802 0.619717 10.7911 0.619717 7.70654V4.61162C0.619717 4.44046 0.480989 4.30166 0.309877 4.30166C0.138728 4.30166 0 4.44046 0 4.61162V7.70654C0 10.5068 2.79392 11.5 5.18646 11.5Z" fill="#A7A7A7"/>
<path d="M12.3581 11.5C12.5293 11.5 12.6681 11.3613 12.6681 11.1901V7.60784C12.6681 7.43667 12.5293 7.29793 12.3581 7.29793C12.187 7.29793 12.0483 7.43667 12.0483 7.60784V11.1901C12.0483 11.3613 12.187 11.5 12.3581 11.5Z" fill="#A7A7A7"/>
<path d="M9.76571 7.75348C9.93687 7.75348 10.0757 7.61475 10.0757 7.44358V4.31552C10.0757 4.14436 9.93687 4.00556 9.76571 4.00556C9.59455 4.00556 9.45587 4.14436 9.45587 4.31552V7.44358C9.45587 7.61475 9.59455 7.75348 9.76571 7.75348Z" fill="#A7A7A7"/>
<path d="M8.8298 11.4095C9.00084 11.4095 9.13964 11.2708 9.13964 11.0996V10.1306C9.13964 9.9594 9.00084 9.82066 8.8298 9.82066C8.65864 9.82066 8.51984 9.9594 8.51984 10.1306V11.0996C8.51984 11.2708 8.65864 11.4095 8.8298 11.4095Z" fill="#A7A7A7"/>
<path d="M10.5927 11.4095C10.7638 11.4095 10.9025 11.2708 10.9025 11.0996V9.39686C10.9025 9.22569 10.7638 9.08696 10.5927 9.08696C10.4215 9.08696 10.2827 9.22569 10.2827 9.39686V11.0996C10.2827 11.2708 10.4215 11.4095 10.5927 11.4095Z" fill="#A7A7A7"/>
<path d="M5.34975 11.4095C5.52091 11.4095 5.65964 11.2708 5.65964 11.0996V10.1306C5.65964 9.9594 5.52091 9.82066 5.34975 9.82066C5.17858 9.82066 5.03986 9.9594 5.03986 10.1306V11.0996C5.03986 11.2708 5.17858 11.4095 5.34975 11.4095Z" fill="#A7A7A7"/>
<path d="M7.11255 11.4095C7.28372 11.4095 7.4224 11.2708 7.4224 11.0996V9.39686C7.4224 9.22569 7.28372 9.08696 7.11255 9.08696C6.94146 9.08696 6.80273 9.22569 6.80273 9.39686V11.0996C6.80273 11.2708 6.94146 11.4095 7.11255 11.4095Z" fill="#A7A7A7"/>
<path d="M3.58777 11.0672C3.75893 11.0672 3.89772 10.9285 3.89772 10.7573V9.39687C3.89772 9.22569 3.75893 9.08696 3.58777 9.08696C3.41668 9.08696 3.27795 9.22569 3.27795 9.39687V10.7573C3.27795 10.9285 3.41668 11.0672 3.58777 11.0672Z" fill="#A7A7A7"/>
<path d="M12.9859 9.43351C12.9859 9.22506 13.1557 9.05526 13.3646 9.05526C13.5733 9.05526 13.7431 9.22506 13.7431 9.43351C13.7431 9.64264 13.5733 9.81244 13.3646 9.81244C13.1557 9.81244 12.9859 9.64264 12.9859 9.43351Z" fill="#A7A7A7"/>
</svg>
