<svg width="219" height="47" viewBox="0 0 219 47" fill="none" xmlns="http://www.w3.org/2000/svg">
<path d="M0.5 8C0.5 3.85786 3.85786 0.5 8 0.5H199V1.5H8C4.41015 1.5 1.5 4.41015 1.5 8H0.5ZM199 46.5H8C3.85786 46.5 0.5 43.1421 0.5 39H1.5C1.5 42.5899 4.41015 45.5 8 45.5H199V46.5ZM8 46.5C3.85786 46.5 0.5 43.1421 0.5 39V8C0.5 3.85786 3.85786 0.5 8 0.5V1.5C4.41015 1.5 1.5 4.41015 1.5 8V39C1.5 42.5899 4.41015 45.5 8 45.5V46.5ZM199 1V46V1Z" fill="black"/>
<path d="M199 1H199.388C201.654 1 203.78 2.09676 205.093 3.94333L216.115 19.4433C217.842 21.872 217.842 25.128 216.115 27.5567L205.093 43.0567C203.78 44.9032 201.654 46 199.388 46H199" stroke="black"/>
</svg>
