<svg width="190" height="47" viewBox="0 0 190 47" fill="none" xmlns="http://www.w3.org/2000/svg">
<path d="M0.5 8C0.5 3.85786 3.85786 0.5 8 0.5H170V1.5H8C4.41015 1.5 1.5 4.41015 1.5 8H0.5ZM170 46.5H8C3.85786 46.5 0.5 43.1421 0.5 39H1.5C1.5 42.5899 4.41015 45.5 8 45.5H170V46.5ZM8 46.5C3.85786 46.5 0.5 43.1421 0.5 39V8C0.5 3.85786 3.85786 0.5 8 0.5V1.5C4.41015 1.5 1.5 4.41015 1.5 8V39C1.5 42.5899 4.41015 45.5 8 45.5V46.5ZM170 1V46V1Z" fill="white"/>
<path d="M170 1H170.388C172.654 1 174.78 2.09676 176.093 3.94333L187.115 19.4433C188.842 21.872 188.842 25.128 187.115 27.5567L176.093 43.0567C174.78 44.9032 172.654 46 170.388 46H170" stroke="white"/>
</svg>
