<svg width="142" height="47" viewBox="0 0 142 47" fill="none" xmlns="http://www.w3.org/2000/svg">
<path d="M0.5 8C0.5 3.85786 3.85786 0.5 8 0.5H122V1.5H8C4.41015 1.5 1.5 4.41015 1.5 8H0.5ZM122 46.5H8C3.85786 46.5 0.5 43.1421 0.5 39H1.5C1.5 42.5899 4.41015 45.5 8 45.5H122V46.5ZM8 46.5C3.85786 46.5 0.5 43.1421 0.5 39V8C0.5 3.85786 3.85786 0.5 8 0.5V1.5C4.41015 1.5 1.5 4.41015 1.5 8V39C1.5 42.5899 4.41015 45.5 8 45.5V46.5ZM122 1V46V1Z" fill="black"/>
<path d="M122 1H122.388C124.654 1 126.78 2.09676 128.093 3.94333L139.115 19.4433C140.842 21.872 140.842 25.128 139.115 27.5567L128.093 43.0567C126.78 44.9032 124.654 46 122.388 46H122" stroke="black"/>
</svg>
