<svg width="169" height="25" viewBox="0 0 169 25" fill="none" xmlns="http://www.w3.org/2000/svg">
<path fill-rule="evenodd" clip-rule="evenodd" d="M158.539 1H2.16147C1.32296 1 0.85679 1.96993 1.3806 2.62469L7.78158 10.6259C8.6581 11.7216 8.6581 13.2784 7.78158 14.3741L1.3806 22.3753C0.856796 23.0301 1.32296 24 2.16148 24H158.539C158.843 24 159.13 23.8619 159.32 23.6247L167.72 13.1247C168.012 12.7595 168.012 12.2405 167.72 11.8753L159.32 1.3753C159.13 1.13809 158.843 1 158.539 1ZM2.16147 0C0.484457 0 -0.44789 1.93986 0.599732 3.24939L7.00071 11.2506C7.58506 11.981 7.58506 13.019 7.00071 13.7494L0.599732 21.7506C-0.447889 23.0601 0.484467 25 2.16148 25H158.539C159.147 25 159.721 24.7238 160.101 24.2494L168.501 13.7494C169.085 13.019 169.085 11.981 168.501 11.2506L160.101 0.75061C159.721 0.276179 159.147 0 158.539 0H2.16147Z" fill="black"/>
</svg>
