<svg width="104" height="25" viewBox="0 0 104 25" fill="none" xmlns="http://www.w3.org/2000/svg">
<path fill-rule="evenodd" clip-rule="evenodd" d="M93.539 1H2.16147C1.32296 1 0.85679 1.96993 1.3806 2.62469L7.78158 10.6259C8.6581 11.7216 8.6581 13.2784 7.78158 14.3741L1.3806 22.3753C0.85679 23.0301 1.32296 24 2.16147 24H93.539C93.8428 24 94.1301 23.8619 94.3198 23.6247L102.72 13.1247C103.012 12.7595 103.012 12.2405 102.72 11.8753L94.3198 1.3753C94.1301 1.13809 93.8428 1 93.539 1ZM2.16147 0C0.484457 0 -0.44789 1.93986 0.599732 3.24939L7.00071 11.2506C7.58506 11.981 7.58506 13.019 7.00071 13.7494L0.599732 21.7506C-0.447889 23.0601 0.484457 25 2.16147 25H93.539C94.1465 25 94.7212 24.7238 95.1007 24.2494L103.501 13.7494C104.085 13.019 104.085 11.981 103.501 11.2506L95.1007 0.75061C94.7212 0.276179 94.1465 0 93.539 0H2.16147Z" fill="black"/>
</svg>
