<svg width="50" height="25" viewBox="0 0 50 25" fill="none" xmlns="http://www.w3.org/2000/svg">
<path fill-rule="evenodd" clip-rule="evenodd" d="M39.539 1H2.16147C1.32296 1 0.85679 1.96993 1.3806 2.62469L7.78158 10.6259C8.6581 11.7216 8.6581 13.2784 7.78158 14.3741L1.3806 22.3753C0.856791 23.0301 1.32296 24 2.16147 24H39.539C39.8428 24 40.1301 23.8619 40.3198 23.6247L48.7198 13.1247C49.012 12.7595 49.012 12.2405 48.7198 11.8753L40.3198 1.3753C40.1301 1.13809 39.8428 1 39.539 1ZM2.16147 0C0.484457 0 -0.44789 1.93986 0.599732 3.24939L7.00071 11.2506C7.58506 11.981 7.58506 13.019 7.00071 13.7494L0.599732 21.7506C-0.447889 23.0601 0.484458 25 2.16147 25H39.539C40.1465 25 40.7212 24.7238 41.1007 24.2494L49.5007 13.7494C50.0851 13.019 50.0851 11.981 49.5007 11.2506L41.1007 0.75061C40.7212 0.276179 40.1465 0 39.539 0H2.16147Z" fill="black"/>
</svg>
