<svg width="204" height="25" viewBox="0 0 204 25" fill="none" xmlns="http://www.w3.org/2000/svg">
<path fill-rule="evenodd" clip-rule="evenodd" d="M193.038 1H2.00375C1.16525 1 0.699075 1.96993 1.22289 2.62469L7.62386 10.6259C8.50039 11.7216 8.50039 13.2784 7.62386 14.3741L1.22289 22.3753C0.699081 23.0301 1.16525 24 2.00376 24H193.038C193.342 24 193.629 23.8619 193.819 23.6247L202.219 13.1247C202.511 12.7595 202.511 12.2405 202.219 11.8753L193.819 1.3753C193.629 1.13809 193.342 1 193.038 1ZM2.00375 0C0.326742 0 -0.605604 1.93986 0.442017 3.24939L6.84299 11.2506C7.42734 11.981 7.42734 13.019 6.84299 13.7494L0.442017 21.7506C-0.605604 23.0601 0.326752 25 2.00376 25H193.038C193.646 25 194.22 24.7238 194.6 24.2494L203 13.7494C203.584 13.019 203.584 11.981 203 11.2506L194.6 0.75061C194.22 0.276179 193.646 0 193.038 0L2.00375 0Z" fill="black"/>
</svg>
