<svg width="340" height="25" viewBox="0 0 340 25" fill="none" xmlns="http://www.w3.org/2000/svg">
<path fill-rule="evenodd" clip-rule="evenodd" d="M329.538 1L2.00375 1.0003C1.16525 1.0003 0.699075 1.97024 1.22289 2.625L7.62386 10.6262C8.50039 11.7219 8.50039 13.2787 7.62386 14.3744L1.22289 22.3756C0.699081 23.0304 1.16525 24.0003 2.00376 24.0003L329.538 24C329.842 24 330.129 23.8619 330.319 23.6247L338.719 13.1247C339.011 12.7595 339.011 12.2405 338.719 11.8753L330.319 1.3753C330.129 1.13809 329.842 1 329.538 1ZM2.00375 0.000304222C0.326742 0.000304222 -0.605604 1.94017 0.442017 3.24969L6.84299 11.2509C7.42734 11.9814 7.42734 13.0193 6.84299 13.7497L0.442017 21.7509C-0.605604 23.0604 0.326752 25.0003 2.00376 25.0003L329.538 25C330.146 25 330.72 24.7238 331.1 24.2494L339.5 13.7494C340.084 13.019 340.084 11.981 339.5 11.2506L331.1 0.75061C330.72 0.276179 330.146 0 329.538 0L2.00375 0.000304222Z" fill="black"/>
</svg>
