<svg width="16" height="17" viewBox="0 0 16 17" fill="none" xmlns="http://www.w3.org/2000/svg">
<path d="M3.3 2.5L3.75 3.25L3.9 3.45L4.15 4L7 8.95L14.85 6.8L14.4 8.45L6.25 10.65L6 10.25L5.5 9.35L2.45 4H1V2.5H3.3ZM8 13.5C8 14.6 7.1 15.5 6 15.5C4.9 15.5 4 14.6 4 13.5C4 12.45 4.85 11.55 5.9 11.5H6H12.5H12.6C13.65 11.55 14.5 12.45 14.5 13.5C14.5 14.6 13.6 15.5 12.5 15.5C11.4 15.5 10.5 14.6 10.5 13.5C10.5 13.35 10.5 13.15 10.55 13H7.9C8 13.15 8 13.35 8 13.5ZM12.5 13C12.2 13 12 13.2 12 13.5C12 13.8 12.2 14 12.5 14C12.8 14 13 13.8 13 13.5C13 13.2 12.8 13 12.5 13ZM6 13C5.7 13 5.5 13.2 5.5 13.5C5.5 13.8 5.7 14 6 14C6.3 14 6.5 13.8 6.5 13.5C6.5 13.2 6.3 13 6 13ZM14.65 4.5H15.5L14.45 8.45L12.8 8.9L13.6 6H4.65L4.05 4.5H14.65Z" fill="white"/>
</svg>
