<svg xmlns="http://www.w3.org/2000/svg" width="36" height="36" viewBox="0 0 36 36" fill="none">
  <path
    d="M3.78125 4.875H5.80204C6.54533 4.875 7.19576 5.3747 7.38727 6.09289L7.9461 8.18847M11.4375 21.2812C9.02125 21.2812 7.0625 23.24 7.0625 25.6562H30.0312M11.4375 21.2812H27.7975C29.4324 17.9262 30.8592 14.4509 32.0609 10.8724C25.1167 9.099 17.8403 8.15625 10.3438 8.15625C9.54197 8.15625 8.74271 8.16704 7.9461 8.18847M11.4375 21.2812L7.9461 8.18847M9.25 30.0312C9.25 30.6353 8.76031 31.125 8.15625 31.125C7.55219 31.125 7.0625 30.6353 7.0625 30.0312C7.0625 29.4272 7.55219 28.9375 8.15625 28.9375C8.76031 28.9375 9.25 29.4272 9.25 30.0312ZM27.8438 30.0312C27.8438 30.6353 27.3541 31.125 26.75 31.125C26.1459 31.125 25.6562 30.6353 25.6562 30.0312C25.6562 29.4272 26.1459 28.9375 26.75 28.9375C27.3541 28.9375 27.8438 29.4272 27.8438 30.0312Z"
    stroke="white" stroke-width="1.5" stroke-linecap="round" stroke-linejoin="round" />
</svg>