<svg xmlns="http://www.w3.org/2000/svg" width="28" height="28" viewBox="0 0 28 28" fill="none">
  <path
    d="M9.625 21.875C9.625 22.8415 8.8415 23.625 7.875 23.625C6.9085 23.625 6.125 22.8415 6.125 21.875M9.625 21.875C9.625 20.9085 8.8415 20.125 7.875 20.125C6.9085 20.125 6.125 20.9085 6.125 21.875M9.625 21.875H16.625M6.125 21.875H3.9375C3.21263 21.875 2.625 21.2874 2.625 20.5625V16.6255M22.75 21.875C22.75 22.8415 21.9665 23.625 21 23.625C20.0335 23.625 19.25 22.8415 19.25 21.875M22.75 21.875C22.75 20.9085 21.9665 20.125 21 20.125C20.0335 20.125 19.25 20.9085 19.25 21.875M22.75 21.875L24.0625 21.875C24.7874 21.875 25.3793 21.2867 25.3347 20.5632C25.0896 16.5876 23.7385 12.9114 21.5852 9.83831C21.1626 9.23524 20.4784 8.8757 19.7431 8.83534H16.625M19.25 21.875H16.625M16.625 8.83534V7.71725C16.625 7.05518 16.1321 6.49507 15.4735 6.42673C13.5512 6.22725 11.6001 6.125 9.625 6.125C7.64994 6.125 5.69877 6.22725 3.77647 6.42673C3.11794 6.49507 2.625 7.05518 2.625 7.71725V16.6255M16.625 8.83534V16.6255M16.625 21.875V16.6255M16.625 16.6255H2.625"
    stroke="white" stroke-width="1.5" stroke-linecap="round" stroke-linejoin="round" />
</svg>