<svg xmlns="http://www.w3.org/2000/svg" width="28" height="28" viewBox="0 0 28 28" fill="none">
  <path
    d="M14 8.75H15.75M14 12.25H15.75M7 15.75H15.75M7 19.25H15.75M19.25 8.75H23.1875C23.9124 8.75 24.5 9.33763 24.5 10.0625V21C24.5 22.4497 23.3247 23.625 21.875 23.625M19.25 8.75V21C19.25 22.4497 20.4253 23.625 21.875 23.625M19.25 8.75V5.6875C19.25 4.96263 18.6624 4.375 17.9375 4.375H4.8125C4.08763 4.375 3.5 4.96263 3.5 5.6875V21C3.5 22.4497 4.67525 23.625 6.125 23.625H21.875M7 8.75H10.5V12.25H7V8.75Z"
    stroke="white" stroke-width="1.5" stroke-linecap="round" stroke-linejoin="round" />
</svg>