<svg width="32" height="32" viewBox="0 0 32 32" fill="none" xmlns="http://www.w3.org/2000/svg">
<path d="M28 7.77925C28 7.04215 27.7155 6.33523 27.2092 5.81402C26.7028 5.29281 26.0161 5 25.3 5L6.7 5C5.98392 5 5.29716 5.29281 4.79081 5.81402C4.28446 6.33523 4 7.04215 4 7.77925L4 17.0434C3.99997 17.776 4.28097 18.479 4.78188 18.9995C5.28279 19.52 5.96309 19.8158 6.6748 19.8227L8.4988 19.8227C8.73749 19.8227 8.96641 19.7251 9.13519 19.5513C9.30398 19.3776 9.3988 19.1419 9.3988 18.8962C9.3988 18.3367 9.5464 17.9834 9.7372 17.7401C9.9376 17.4831 10.2472 17.2707 10.684 17.1089C11.59 16.7717 12.784 16.7358 13.9 16.7358C14.1281 16.7358 14.3477 16.6466 14.5144 16.4863L14.7268 16.2825C14.7987 16.2154 14.868 16.1454 14.9344 16.0725C15.0184 15.9811 15.2764 15.702 16.336 14.6113C16.8988 14.0319 17.374 13.712 17.7376 13.607C17.8633 13.5636 17.9983 13.5567 18.1276 13.5873C18.2771 13.633 18.4113 13.7207 18.5152 13.8405C18.631 13.9472 18.7157 14.0849 18.76 14.2382C18.7894 14.3709 18.7828 14.5094 18.7408 14.6384C18.6388 15.0115 18.3256 15.5006 17.7628 16.0799C17.1148 16.747 16.5064 17.3806 15.9628 17.9476C15.0604 18.8864 14.3308 19.6436 13.8868 20.0722C13.7137 20.2401 13.6122 20.4718 13.6045 20.7165C13.5968 20.9612 13.6836 21.1991 13.8458 21.3782C14.0081 21.5573 14.2326 21.663 14.4703 21.6721C14.708 21.6813 14.9396 21.5933 15.1144 21.4272C15.6487 20.9015 16.1744 20.3666 16.6912 19.8227L20.728 19.8227L17.3176 23.3332C16.8112 23.8532 16.1248 24.1472 15.4096 24.1472L4.9 24.1472C4.6613 24.1472 4.43238 24.2448 4.2636 24.4185C4.09482 24.5922 4 24.8279 4 25.0736C4 25.3193 4.09482 25.5549 4.2636 25.7287C4.43238 25.9024 4.6613 26 4.9 26L15.4084 26C15.9995 26 16.5847 25.88 17.1308 25.6471C17.6768 25.4142 18.1729 25.0728 18.5908 24.6425L23.2732 19.8227L25.3012 19.8227C26.0171 19.8223 26.7035 19.5294 27.2096 19.0082C27.7157 18.487 28 17.7803 28 17.0434L28 7.77925ZM8.3344 16.579C8.01836 16.9848 7.79891 17.4611 7.6936 17.9698L7.6 17.9698L7.6 17.0434C7.6 16.7977 7.50518 16.5621 7.33639 16.3883C7.16761 16.2146 6.93869 16.117 6.7 16.117L5.8 16.117L5.8 14.2642L6.7 14.2642C7.20869 14.2642 7.70701 14.4122 8.13757 14.6911C8.56812 14.9699 8.91339 15.3683 9.1336 15.8403C8.8408 16.0379 8.5672 16.28 8.3344 16.579ZM13.5448 14.8842C13.2412 14.8867 12.9136 14.8929 12.5728 14.9114C12.177 14.3363 11.9239 13.6702 11.8354 12.9713C11.7469 12.2724 11.8257 11.5618 12.0651 10.9014C12.3044 10.241 12.697 9.65089 13.2086 9.18242C13.7202 8.71395 14.3353 8.38133 15.0003 8.21354C15.6654 8.04576 16.3602 8.04789 17.0242 8.21975C17.6883 8.39162 18.3015 8.728 18.8104 9.19961C19.3192 9.67121 19.7084 10.2637 19.9439 10.9256C20.1794 11.5874 20.2541 12.2985 20.1616 12.9968C20.0552 12.8321 19.9304 12.6765 19.7872 12.5299C19.4368 12.1692 19.0312 11.9123 18.5752 11.7925C18.1192 11.6727 17.6704 11.7011 17.2504 11.8234C16.4428 12.0568 15.7012 12.6448 15.0628 13.3019C14.5688 13.8043 14.0812 14.3133 13.6 14.8287L13.5964 14.8336L13.5496 14.8793L13.5448 14.8842ZM26.2 8.70566L26.2 10.5585L25.3 10.5585C24.5839 10.5585 23.8972 10.2657 23.3908 9.74447C22.8845 9.22326 22.6 8.51635 22.6 7.77925L22.6 6.85283L24.4 6.85283L24.4 7.77925C24.4 8.02495 24.4948 8.26059 24.6636 8.43432C24.8324 8.60806 25.0613 8.70566 25.3 8.70566L26.2 8.70566ZM26.2 14.2642L26.2 16.117L25.3 16.117C24.8032 16.117 24.4 16.532 24.4 17.0434L24.4 17.9698L22.6 17.9698L22.6 17.0434C22.6 16.3063 22.8845 15.5994 23.3908 15.0782C23.8972 14.557 24.5839 14.2642 25.3 14.2642L26.2 14.2642ZM5.8 10.5585L5.8 8.70566L6.7 8.70566C6.93869 8.70566 7.16761 8.60806 7.3364 8.43432C7.50518 8.26059 7.6 8.02495 7.6 7.77925L7.6 6.85283L9.4 6.85283L9.4 7.77925C9.4 8.51635 9.11554 9.22326 8.60919 9.74447C8.10284 10.2657 7.41608 10.5585 6.7 10.5585L5.8 10.5585Z" fill="black"/>
</svg>
