<svg xmlns="http://www.w3.org/2000/svg" width="25" height="26" viewBox="0 0 25 26" fill="none">
  <path
    d="M12.4999 9.61462C11.6021 9.61462 10.741 9.9713 10.1061 10.6062C9.47118 11.2411 9.1145 12.1022 9.1145 13C9.1145 13.8979 9.47118 14.759 10.1061 15.3939C10.741 16.0288 11.6021 16.3855 12.4999 16.3855C13.3978 16.3855 14.2589 16.0288 14.8938 15.3939C15.5287 14.759 15.8853 13.8979 15.8853 13C15.8853 12.1022 15.5287 11.2411 14.8938 10.6062C14.2589 9.9713 13.3978 9.61462 12.4999 9.61462Z"
    fill="white" />
  <path fill-rule="evenodd" clip-rule="evenodd"
    d="M7.0521 3.71044C10.673 3.30909 14.3271 3.30909 17.9479 3.71044C19.9261 3.93127 21.5208 5.48856 21.7531 7.47398C22.1825 11.1455 22.1825 14.8545 21.7531 18.5261C21.5208 20.5115 19.9261 22.0688 17.949 22.2906C14.3278 22.6921 10.6733 22.6921 7.0521 22.2906C5.07398 22.0688 3.47918 20.5115 3.24689 18.5271C2.81744 14.8552 2.81744 11.1458 3.24689 7.47398C3.47918 5.48856 5.07398 3.93127 7.0521 3.71044ZM17.7083 6.75002C17.4321 6.75002 17.1671 6.85977 16.9718 7.05512C16.7764 7.25047 16.6667 7.51542 16.6667 7.79169C16.6667 8.06796 16.7764 8.33291 16.9718 8.52826C17.1671 8.72361 17.4321 8.83336 17.7083 8.83336C17.9846 8.83336 18.2496 8.72361 18.4449 8.52826C18.6403 8.33291 18.75 8.06796 18.75 7.79169C18.75 7.51542 18.6403 7.25047 18.4449 7.05512C18.2496 6.85977 17.9846 6.75002 17.7083 6.75002ZM7.5521 13C7.5521 11.6878 8.0734 10.4292 9.00131 9.50132C9.92923 8.5734 11.1877 8.05211 12.5 8.05211C13.8123 8.05211 15.0708 8.5734 15.9987 9.50132C16.9266 10.4292 17.4479 11.6878 17.4479 13C17.4479 14.3123 16.9266 15.5708 15.9987 16.4987C15.0708 17.4266 13.8123 17.9479 12.5 17.9479C11.1877 17.9479 9.92923 17.4266 9.00131 16.4987C8.0734 15.5708 7.5521 14.3123 7.5521 13Z"
    fill="white" />
</svg>