<svg width="32" height="32" viewBox="0 0 32 32" fill="none" xmlns="http://www.w3.org/2000/svg">
<path d="M24.8899 5.1793H7.12153C6.3902 5.17307 5.68619 5.45684 5.1636 5.96849C4.64102 6.48014 4.34243 7.178 4.3332 7.9093V10.3826C4.32627 10.9736 4.50809 11.5514 4.85221 12.0319C5.19633 12.5124 5.68479 12.8706 6.24653 13.0543V22.2243C6.2473 22.8312 6.36949 23.4319 6.60592 23.9909C6.84235 24.5499 7.18823 25.056 7.6232 25.4793C8.50292 26.3457 9.69016 26.8281 10.9249 26.821H21.0865C22.3212 26.8281 23.5085 26.3457 24.3882 25.4793C24.8232 25.056 25.1691 24.5499 25.4055 23.9909C25.6419 23.4319 25.7641 22.8312 25.7649 22.2243V13.0543C26.3149 12.8717 26.7941 12.5215 27.1351 12.0528C27.4761 11.5842 27.662 11.0206 27.6665 10.441V7.96763C27.671 7.6012 27.6024 7.23754 27.4646 6.89797C27.3268 6.5584 27.1226 6.24974 26.864 5.99007C26.6055 5.7304 26.2977 5.52494 25.9587 5.38572C25.6197 5.2465 25.2563 5.17632 24.8899 5.1793ZM19.3015 19.0393C19.2207 19.121 19.1244 19.1858 19.0182 19.2299C18.912 19.274 18.7982 19.2964 18.6832 19.296C18.568 19.2984 18.4535 19.2769 18.347 19.2327C18.2406 19.1885 18.1445 19.1226 18.0649 19.0393L16.8982 17.8726V21.816C16.8982 22.048 16.806 22.2706 16.6419 22.4347C16.4778 22.5988 16.2553 22.691 16.0232 22.691C15.7911 22.691 15.5686 22.5988 15.4045 22.4347C15.2404 22.2706 15.1482 22.048 15.1482 21.816V17.8726L13.9815 19.0393C13.8157 19.1939 13.5963 19.278 13.3696 19.274C13.1429 19.27 12.9266 19.1782 12.7663 19.0179C12.606 18.8575 12.5142 18.6413 12.5102 18.4146C12.5062 18.1879 12.5903 17.9685 12.7449 17.8026L15.0782 15.4693C15.2065 15.3386 15.3629 15.236 15.5332 15.166C15.6449 15.1186 15.7627 15.0872 15.8832 15.0726C16.0065 15.0493 16.1332 15.0493 16.2565 15.0726C16.3814 15.0855 16.5027 15.117 16.6182 15.166C16.7874 15.2383 16.9414 15.341 17.0732 15.4693L19.4065 17.8026C19.4812 17.8906 19.5377 17.9924 19.5728 18.1023C19.6079 18.2121 19.621 18.3279 19.6112 18.4428C19.6015 18.5577 19.5691 18.6696 19.5159 18.772C19.4628 18.8743 19.3899 18.9652 19.3015 19.0393ZM25.9165 10.3826C25.9149 10.5153 25.8869 10.6464 25.8343 10.7683C25.7817 10.8901 25.7054 11.0003 25.61 11.0925C25.5145 11.1848 25.4017 11.2571 25.2781 11.3055C25.1545 11.3539 25.0226 11.3772 24.8899 11.3743H7.12153C6.98823 11.3774 6.85563 11.3542 6.73129 11.306C6.60696 11.2579 6.49333 11.1857 6.39691 11.0936C6.30048 11.0015 6.22315 10.8913 6.16932 10.7693C6.11549 10.6473 6.08623 10.5159 6.0832 10.3826V7.9093C6.08621 7.77652 6.11555 7.64565 6.16952 7.5243C6.22349 7.40294 6.30102 7.29351 6.3976 7.20235C6.49419 7.11119 6.60792 7.04011 6.73219 6.99324C6.85646 6.94636 6.9888 6.92463 7.12153 6.9293H24.8899C25.022 6.92462 25.1538 6.94643 25.2774 6.99344C25.401 7.04045 25.514 7.1117 25.6097 7.20302C25.7053 7.29433 25.7817 7.40386 25.8344 7.52515C25.8872 7.64645 25.9151 7.77706 25.9165 7.9093V10.3826Z" fill="black"/>
</svg>
