<svg xmlns="http://www.w3.org/2000/svg" width="16" height="17" viewBox="0 0 16 17" fill="none">
  <path
    d="M8 2.5C8.79565 2.5 9.55871 2.81607 10.1213 3.37868C10.6839 3.94129 11 4.70435 11 5.5C11 6.29565 10.6839 7.05871 10.1213 7.62132C9.55871 8.18393 8.79565 8.5 8 8.5C7.20435 8.5 6.44129 8.18393 5.87868 7.62132C5.31607 7.05871 5 6.29565 5 5.5C5 4.70435 5.31607 3.94129 5.87868 3.37868C6.44129 2.81607 7.20435 2.5 8 2.5ZM8 4C7.60218 4 7.22064 4.15804 6.93934 4.43934C6.65804 4.72064 6.5 5.10218 6.5 5.5C6.5 5.89782 6.65804 6.27936 6.93934 6.56066C7.22064 6.84196 7.60218 7 8 7C8.39782 7 8.77936 6.84196 9.06066 6.56066C9.34196 6.27936 9.5 5.89782 9.5 5.5C9.5 5.10218 9.34196 4.72064 9.06066 4.43934C8.77936 4.15804 8.39782 4 8 4ZM8 9.25C10.0025 9.25 14 10.2475 14 12.25V14.5H2V12.25C2 10.2475 5.9975 9.25 8 9.25ZM8 10.675C5.7725 10.675 3.425 11.77 3.425 12.25V13.075H12.575V12.25C12.575 11.77 10.2275 10.675 8 10.675Z"
    fill="black" />
</svg>