<svg width="20" height="20" viewBox="0 0 20 20" fill="none" xmlns="http://www.w3.org/2000/svg">
<path d="M12.5417 4.16634C13.3556 4.32515 14.1036 4.72322 14.69 5.30962C15.2764 5.89602 15.6745 6.64406 15.8333 7.45801M12.5417 0.833008C14.2327 1.02087 15.8096 1.77815 17.0135 2.98051C18.2174 4.18287 18.9767 5.75885 19.1667 7.44967M18.3333 14.0997V16.5997C18.3343 16.8318 18.2867 17.0615 18.1937 17.2741C18.1008 17.4868 17.9644 17.6777 17.7934 17.8346C17.6224 17.9915 17.4205 18.1109 17.2006 18.1853C16.9808 18.2596 16.7478 18.2872 16.5167 18.2663C13.9523 17.9877 11.4892 17.1115 9.32498 15.708C7.31151 14.4286 5.60443 12.7215 4.32499 10.708C2.91663 8.53401 2.04019 6.05884 1.76665 3.48301C1.74583 3.25256 1.77321 3.02031 1.84707 2.80103C1.92092 2.58175 2.03963 2.38025 2.19562 2.20936C2.35162 2.03847 2.54149 1.90193 2.75314 1.80844C2.9648 1.71495 3.1936 1.66656 3.42499 1.66634H5.92499C6.32941 1.66236 6.72148 1.80557 7.02812 2.06928C7.33476 2.333 7.53505 2.69921 7.59165 3.09967C7.69717 3.89973 7.89286 4.68528 8.17499 5.44134C8.2871 5.73961 8.31137 6.06377 8.24491 6.37541C8.17844 6.68705 8.02404 6.9731 7.79998 7.19967L6.74165 8.25801C7.92795 10.3443 9.65536 12.0717 11.7417 13.258L12.8 12.1997C13.0266 11.9756 13.3126 11.8212 13.6243 11.7548C13.9359 11.6883 14.26 11.7126 14.5583 11.8247C15.3144 12.1068 16.0999 12.3025 16.9 12.408C17.3048 12.4651 17.6745 12.669 17.9388 12.9809C18.203 13.2928 18.3435 13.691 18.3333 14.0997Z" stroke="black" stroke-width="1.5" stroke-linecap="round" stroke-linejoin="round"/>
</svg>
