<svg width="32" height="32" viewBox="0 0 32 32" fill="none" xmlns="http://www.w3.org/2000/svg">
<path d="M20.0002 1.71997V30.28L7.6495 23.3333H1.3335V8.66664H7.6495L20.0002 1.71997ZM6.6655 11.3333H4.00016V20.6666H6.6655V11.3333ZM9.33216 21.22L17.3335 25.72V6.27997L9.33216 10.7786V21.22ZM27.9722 9.3093L28.7762 10.3733C29.9999 11.9941 30.6616 13.9698 30.6609 16.0006C30.6602 18.0315 29.9971 20.0067 28.7722 21.6266L27.9682 22.6906L25.8415 21.0826L26.6455 20.0186C27.5209 18.8614 27.9947 17.4501 27.9952 15.9991C27.9957 14.5481 27.5228 13.1365 26.6482 11.9786L25.8442 10.916L27.9722 9.3093ZM24.2482 12.12L25.0522 13.184C25.6641 13.9943 25.9951 14.9821 25.9949 15.9975C25.9946 17.013 25.6632 18.0006 25.0508 18.8106L24.2455 19.8746L22.1202 18.2666L22.9242 17.204C23.1868 16.8569 23.3291 16.4335 23.3293 15.9982C23.3296 15.5629 23.1878 15.1394 22.9255 14.792L22.1215 13.728L24.2482 12.12Z" fill="white"/>
</svg>
