<svg xmlns="http://www.w3.org/2000/svg" width="24" height="21" viewBox="0 0 24 21" fill="none">
  <path
    d="M23.2962 9.66612L21.5514 6.651C21.2529 6.13895 20.7077 5.82141 20.1137 5.82141H17.0374V3.73314C17.0374 3.14099 16.7188 2.59461 16.2052 2.29996L12.5893 0.22313C12.0757 -0.0743768 11.4443 -0.0743768 10.9249 0.22313L7.31772 2.29996C6.80404 2.59747 6.48551 3.14099 6.48551 3.73314V5.82428H3.41207C2.81804 5.82428 2.2728 6.13895 1.97435 6.651L0.223836 9.66612C-0.074612 10.1782 -0.074612 10.8132 0.223836 11.3253L1.97435 14.3461C2.2728 14.8582 2.81804 15.1757 3.41207 15.1757H6.48551V17.264C6.48551 17.8562 6.80117 18.4025 7.31485 18.6972L10.9221 20.7769C11.4357 21.0744 12.0728 21.0744 12.5865 20.7769L16.1994 18.6972C16.7131 18.3997 17.0316 17.8562 17.0316 17.264V15.1757H20.1051C20.6991 15.1757 21.2472 14.8582 21.5428 14.3461L23.2962 11.3224C23.5946 10.8104 23.5946 10.181 23.2962 9.66326H23.299L23.2962 9.66612Z"
    fill="black" />
</svg>