<svg xmlns="http://www.w3.org/2000/svg" width="24" height="21" viewBox="0 0 24 21" fill="none">
  <path
    d="M23.0234 9.91655L23.0501 9.9627C23.2323 10.3164 23.2221 10.7311 23.0242 11.0707L23.0237 11.0716L21.2703 14.0953L21.2698 14.0962C21.0634 14.4536 20.6803 14.6757 20.2651 14.6757H17.1917H16.6917V15.1757V17.264C16.6917 17.6742 16.4713 18.0543 16.1095 18.2641C16.1093 18.2643 16.1091 18.2644 16.1089 18.2645L12.4971 20.3435L12.4959 20.3442C12.1372 20.5519 11.6914 20.5519 11.3327 20.3442L11.3318 20.3437L7.72462 18.264L7.72366 18.2635C7.36578 18.0582 7.14554 17.6775 7.14554 17.264V15.1757V14.6757H6.64554H3.5721C3.15841 14.6757 2.77675 14.4549 2.56669 14.0949C2.56658 14.0947 2.56647 14.0945 2.56636 14.0944L0.816485 11.0746L0.815852 11.0735C0.608095 10.7171 0.608095 10.2744 0.815852 9.9179L0.816277 9.91717L2.56636 6.90278C2.56645 6.90263 2.56654 6.90247 2.56663 6.90232C2.77584 6.54374 3.15672 6.32428 3.5721 6.32428H6.64554H7.14554V5.82428V3.73314C7.14554 3.32283 7.36599 2.94271 7.72788 2.7329C7.72803 2.73281 7.72819 2.73272 7.72834 2.73263L11.3335 0.657C11.3336 0.656909 11.3338 0.656817 11.3339 0.656726C11.7002 0.447173 12.1411 0.448651 12.4988 0.655804L12.5003 0.656701L16.1162 2.73353L16.1164 2.73367C16.4757 2.93979 16.6974 3.32132 16.6974 3.73314V5.82141V6.32141H17.1974H20.2737C20.6874 6.32141 21.0691 6.54231 21.2792 6.90234C21.2793 6.90249 21.2794 6.90263 21.2794 6.90278L23.0234 9.91655Z"
    stroke="#515151" />
</svg>