<svg xmlns="http://www.w3.org/2000/svg" width="25" height="26" viewBox="0 0 25 26" fill="none">
  <mask id="mask0_3606_1559" style="mask-type:luminance" maskUnits="userSpaceOnUse" x="0" y="0"
    width="25" height="26">
    <path d="M0 0.5H25V25.5H0V0.5Z" fill="white" />
  </mask>
  <g mask="url(#mask0_3606_1559)">
    <path
      d="M24.4791 7.27812C24.3375 6.77316 24.0618 6.31598 23.6812 5.95521C23.2898 5.58333 22.8101 5.31733 22.2874 5.18229C20.3312 4.66666 12.4937 4.66666 12.4937 4.66666C9.2263 4.62949 5.95973 4.79299 2.71241 5.15625C2.18969 5.30126 1.71091 5.57321 1.31866 5.94791C0.933244 6.31875 0.654077 6.77604 0.508244 7.27708C0.157924 9.16431 -0.0122853 11.0806 -8.95226e-05 13C-0.0125895 14.9177 0.157202 16.8333 0.508244 18.7229C0.650952 19.2219 0.929077 19.6771 1.31554 20.0448C1.70199 20.4125 2.18324 20.6781 2.71241 20.8187C4.6947 21.3333 12.4937 21.3333 12.4937 21.3333C15.7652 21.3706 19.0359 21.2071 22.2874 20.8437C22.8101 20.7087 23.2898 20.4427 23.6812 20.0708C24.0616 19.7101 24.3371 19.2529 24.478 18.7479C24.8375 16.8614 25.0123 14.9444 24.9999 13.024C25.0269 11.0954 24.8524 9.17038 24.4791 7.27812ZM10.002 16.5667V9.43437L16.5228 13.001L10.002 16.5667Z"
      fill="white" />
  </g>
</svg>